<svg width="318" height="150" viewBox="0 0 318 150" fill="none" xmlns="http://www.w3.org/2000/svg">
<rect width="318" height="150" fill="white"/>
<g clip-path="url(#clip0_2_2)">
<path d="M34.8007 128.44C45.467 122.59 67.5165 112.777 95.3486 112.777C123.181 112.777 145.23 122.59 155.897 128.44C166.281 134.135 174.632 140.849 178.566 146.328C180 144.263 177.895 107.528 172.071 92.9594C163.532 71.5499 149.212 53.2818 130.904 40.4435C112.597 27.6052 91.1152 20.7674 69.1508 20.7868C61.3382 20.7643 53.599 22.3813 46.3811 25.5442C39.1632 28.7072 32.61 33.3534 27.1008 39.2138C26.8668 39.4613 26.635 39.7106 26.4054 39.9615C14.0789 53.4328 8.32325 72.1749 10.4246 90.792C11.9208 104.047 15.6079 131.77 20.8178 137.648C25.2294 134.174 29.9065 131.094 34.8007 128.44V128.44Z" fill="#F2F2F2"/>
<path d="M114.698 38.0549C123.502 38.0549 130.639 30.5043 130.639 21.1903C130.639 11.8762 123.502 4.32565 114.698 4.32565C105.895 4.32565 98.7575 11.8762 98.7575 21.1903C98.7575 30.5043 105.895 38.0549 114.698 38.0549Z" fill="#6C63FF"/>
<path d="M96.5881 121.868C106.375 121.868 114.309 120.117 114.309 117.957C114.309 115.797 106.375 114.046 96.5881 114.046C86.8012 114.046 78.8673 115.797 78.8673 117.957C78.8673 120.117 86.8012 121.868 96.5881 121.868Z" fill="#F2F2F2"/>
<path d="M114.59 29.5924C98.3457 29.5909 85.6211 26.4753 85.6214 22.4994C85.6216 20.1158 90.1307 17.9894 97.9923 16.6658C98.0203 16.6608 98.0489 16.6617 98.0766 16.6685C98.1043 16.6752 98.1304 16.6877 98.1535 16.7051C98.1766 16.7226 98.1963 16.7446 98.2113 16.7701C98.2264 16.7956 98.2365 16.8239 98.2412 16.8535C98.2459 16.8832 98.2451 16.9135 98.2387 16.9427C98.2323 16.972 98.2205 16.9997 98.2041 17.0241C98.1876 17.0486 98.1667 17.0694 98.1426 17.0853C98.1186 17.1012 98.0918 17.112 98.0638 17.1169L98.063 17.1171L98.0602 17.1175C90.6546 18.3645 86.054 20.4267 86.0538 22.4995C86.0535 26.0948 99.1216 29.1335 114.59 29.135C130.059 29.1364 143.127 26.1003 143.128 22.5049C143.128 20.4235 138.498 18.3553 131.045 17.1077C131.017 17.1032 130.99 17.0929 130.966 17.0774C130.942 17.0619 130.92 17.0414 130.904 17.0172C130.887 16.9929 130.875 16.9654 130.868 16.9362C130.861 16.907 130.86 16.8767 130.864 16.847C130.868 16.8172 130.878 16.7887 130.893 16.763C130.908 16.7372 130.927 16.7149 130.95 16.6971C130.973 16.6793 130.999 16.6665 131.026 16.6593C131.054 16.6522 131.083 16.6509 131.111 16.6555L131.112 16.6556L131.113 16.6559C139.024 17.9801 143.56 20.112 143.56 22.505C143.56 26.4808 130.835 29.5939 114.59 29.5924Z" fill="#3F3D56"/>
<path d="M115.748 26.868C101.75 35.588 89.2911 39.735 87.3843 36.309C86.241 34.255 89.1063 30.002 95.2455 24.6407C95.2672 24.6214 95.2924 24.6068 95.3194 24.5977C95.3465 24.5887 95.375 24.5854 95.4033 24.588C95.4316 24.5906 95.4591 24.5991 95.4843 24.6129C95.5095 24.6268 95.5318 24.6458 95.5501 24.6688C95.5683 24.6918 95.5821 24.7184 95.5907 24.747C95.5992 24.7757 95.6023 24.8058 95.5999 24.8357C95.5974 24.8657 95.5894 24.8948 95.5763 24.9214C95.5632 24.9481 95.5453 24.9717 95.5235 24.991L95.5229 24.9916L95.5207 24.9934C89.7377 30.0439 86.7627 34.2908 87.7568 36.0769C89.4812 39.175 102.199 34.7774 115.529 26.4738C128.858 18.1703 138.662 8.53785 136.938 5.43969C135.94 3.64608 130.959 4.34959 123.938 7.27585C123.912 7.287 123.884 7.29255 123.855 7.29218C123.827 7.29182 123.799 7.28553 123.773 7.2737C123.747 7.26186 123.723 7.24471 123.703 7.22321C123.683 7.20171 123.668 7.17629 123.657 7.1484C123.647 7.12051 123.641 7.09069 123.642 7.06066C123.642 7.03062 123.648 7.00096 123.659 6.97335C123.671 6.94574 123.687 6.92073 123.707 6.89976C123.727 6.87878 123.751 6.86224 123.778 6.85108L123.778 6.85081L123.78 6.85021C131.231 3.74429 136.163 3.14557 137.311 5.20758C139.218 8.63362 129.746 18.148 115.748 26.868Z" fill="#3F3D56"/>
<path d="M97.0896 120.032C103.729 120.032 109.111 119.088 109.111 117.923C109.111 116.759 103.729 115.815 97.0896 115.815C90.4505 115.815 85.0685 116.759 85.0685 117.923C85.0685 119.088 90.4505 120.032 97.0896 120.032Z" fill="#E6E6E6"/>
<path d="M57.0254 142.32C68.1953 142.32 77.2503 140.321 77.2503 137.856C77.2503 135.391 68.1953 133.392 57.0254 133.392C45.8556 133.392 36.8006 135.391 36.8006 137.856C36.8006 140.321 45.8556 142.32 57.0254 142.32Z" fill="#F2F2F2"/>
<path d="M139.394 150C156.048 150 169.55 147.02 169.55 143.344C169.55 139.669 156.048 136.689 139.394 136.689C122.739 136.689 109.237 139.669 109.237 143.344C109.237 147.02 122.739 150 139.394 150Z" fill="#F2F2F2"/>
<path d="M56.9639 140.431C65.526 140.431 72.467 139.214 72.467 137.712C72.467 136.211 65.526 134.993 56.9639 134.993C48.4018 134.993 41.4608 136.211 41.4608 137.712C41.4608 139.214 48.4018 140.431 56.9639 140.431Z" fill="#E6E6E6"/>
<path d="M139.4 147.57C154.039 147.57 165.906 145.489 165.906 142.922C165.906 140.354 154.039 138.273 139.4 138.273C124.762 138.273 112.895 140.354 112.895 142.922C112.895 145.489 124.762 147.57 139.4 147.57Z" fill="#E6E6E6"/>
<path d="M22.4929 78.0802C23.3287 78.0802 24.0062 77.3634 24.0062 76.4792C24.0062 75.595 23.3287 74.8782 22.4929 74.8782C21.6571 74.8782 20.9796 75.595 20.9796 76.4792C20.9796 77.3634 21.6571 78.0802 22.4929 78.0802Z" fill="white"/>
<path d="M128.426 101.409C129.261 101.409 129.939 100.692 129.939 99.8082C129.939 98.924 129.261 98.2072 128.426 98.2072C127.59 98.2072 126.912 98.924 126.912 99.8082C126.912 100.692 127.59 101.409 128.426 101.409Z" fill="white"/>
<path d="M76.7418 48.5942C80.4159 49.7034 80.2747 52.0249 84.6327 52.0249C88.9907 52.0249 92.5236 52.6363 92.5236 48.5942C92.5236 44.5521 90.789 37.0379 84.6327 37.3871C78.0067 37.7629 74.5143 47.9217 76.7418 48.5942Z" fill="#2F2E41"/>
<path d="M67.0727 82.8223C66.9146 82.5044 66.8243 82.1537 66.8082 81.7949C66.7921 81.4361 66.8505 81.0779 66.9794 80.7456C67.1083 80.4133 67.3044 80.1149 67.5541 79.8715C67.8038 79.6281 68.1009 79.4455 68.4245 79.3367L77.4647 59.1047L81.5999 62.1725L71.4134 81.0952C71.5501 81.6824 71.4785 82.3023 71.2122 82.8374C70.9458 83.3724 70.5031 83.7856 69.9681 83.9984C69.433 84.2113 68.8428 84.2092 68.3091 83.9924C67.7755 83.7756 67.3355 83.3593 67.0727 82.8222L67.0727 82.8223Z" fill="#FFB8B8"/>
<path d="M74.8191 61.7908C74.7761 61.6392 74.7644 61.4795 74.785 61.3227C74.8056 61.1659 74.858 61.0156 74.9385 60.8822L77.7493 56.2205C78.0616 55.4809 78.6385 54.9026 79.3533 54.6123C80.0681 54.322 80.8626 54.3435 81.5625 54.672C82.2624 55.0005 82.8106 55.6092 83.0869 56.3647C83.3632 57.1202 83.345 57.9607 83.0364 58.702L81.6205 64.0433C81.5801 64.1957 81.5091 64.3371 81.4123 64.4579C81.3156 64.5787 81.1954 64.676 81.0599 64.7432C80.9244 64.8104 80.7768 64.8459 80.6272 64.8474C80.4776 64.8488 80.3294 64.8161 80.1928 64.7514L75.3915 62.4801C75.2549 62.4155 75.133 62.3205 75.0342 62.2016C74.9354 62.0826 74.862 61.9425 74.8191 61.7908V61.7908Z" fill="#6C63FF"/>
<path d="M99.8995 121.92L97.409 122.88L92.7261 113.174L96.4017 111.758L99.8995 121.92Z" fill="#FFB8B8"/>
<path d="M95.3709 122.812L100.174 120.962L101.275 124.161L93.4478 127.176C93.1558 126.328 93.1943 125.391 93.555 124.573C93.9156 123.754 94.5688 123.121 95.3709 122.812V122.812Z" fill="#2F2E41"/>
<path d="M93.1005 115.781L83.6126 98.2148C83.5209 98.0449 83.4737 97.8522 83.4756 97.6565C83.4776 97.4609 83.5287 97.2693 83.6238 97.1014L87.8962 89.5682C87.9975 89.3895 88.1447 89.2449 88.3206 89.1511C88.4964 89.0573 88.6939 89.0182 88.8899 89.0384C89.0859 89.0585 89.2726 89.1371 89.4281 89.2649C89.5836 89.3928 89.7017 89.5647 89.7686 89.7607L97.8462 113.425C97.9351 113.683 97.9297 113.967 97.8309 114.22C97.7321 114.474 97.5472 114.679 97.3126 114.795L94.4504 116.23C94.3123 116.299 94.1613 116.335 94.0085 116.335C93.8245 116.335 93.6436 116.284 93.4842 116.187C93.3248 116.089 93.1924 115.949 93.1005 115.781Z" fill="#2F2E41"/>
<path d="M84.296 51.8055C87.2285 51.8055 89.6058 49.2905 89.6058 46.188C89.6058 43.0855 87.2285 40.5705 84.296 40.5705C81.3634 40.5705 78.9861 43.0855 78.9861 46.188C78.9861 49.2905 81.3634 51.8055 84.296 51.8055Z" fill="#FFB8B8"/>
<path d="M76.7434 71.633C72.5618 61.8237 76.7774 56.3413 78.7839 54.4396C79.3619 53.8911 80.1111 53.588 80.8875 53.5885H88.3675C88.9046 53.5885 89.4329 53.7337 89.902 54.0104C90.3712 54.2872 90.7657 54.6862 91.0481 55.1696C91.3305 55.6529 91.4914 56.2047 91.5156 56.7724C91.5397 57.3401 91.4263 57.9049 91.1861 58.4132L86.1857 68.9933L76.7841 71.7286L76.7434 71.633Z" fill="#6C63FF"/>
<path d="M82.7905 124.573L80.14 124.572L78.8792 113.757L82.7909 113.757L82.7905 124.573Z" fill="#FFB8B8"/>
<path d="M78.2468 123.771H83.3584V127.176H75.0285C75.0284 126.729 75.1117 126.286 75.2734 125.873C75.4352 125.46 75.6722 125.085 75.9711 124.769C76.2699 124.452 76.6247 124.202 77.0152 124.03C77.4057 123.859 77.8242 123.771 78.2468 123.771Z" fill="#2F2E41"/>
<path d="M81.6674 120.444L77.4239 119.926C77.1495 119.892 76.899 119.745 76.7273 119.516C76.5557 119.287 76.4771 118.995 76.5088 118.705C76.5095 118.699 76.5102 118.692 76.511 118.686L80.2983 88.5187C80.3115 88.4136 80.3061 88.3068 80.2825 88.2038L76.4759 71.5888C76.4399 71.4355 76.4358 71.2759 76.464 71.1208C76.4921 70.9657 76.5518 70.819 76.6389 70.6908C77.2291 69.8298 79.2517 67.8235 85.2679 67.7854H85.2744C85.4747 67.7855 85.6709 67.8464 85.8394 67.961C86.008 68.0757 86.1418 68.2391 86.225 68.4319L87.0276 70.2996C87.0873 70.4383 87.1808 70.5577 87.2984 70.6456C88.403 71.4728 93.7542 76.116 90.6121 86.31C87.5239 96.3294 83.5671 115.781 82.8052 119.579C82.7567 119.826 82.6291 120.047 82.4441 120.206C82.2591 120.365 82.028 120.452 81.7897 120.451C81.7488 120.451 81.708 120.449 81.6674 120.444V120.444Z" fill="#2F2E41"/>
<path d="M102.776 47.5979C102.786 47.724 102.806 47.8491 102.835 47.9719L95.6254 56.3675L93.0792 55.787L91.7488 59.7378L96.1619 61.229C96.5184 61.3494 96.9023 61.3443 97.2558 61.2143C97.6093 61.0844 97.9135 60.8366 98.1225 60.5082L104.937 49.8053C105.397 49.827 105.853 49.6998 106.244 49.4408C106.634 49.1818 106.941 48.8032 107.123 48.3553C107.305 47.9074 107.354 47.4115 107.263 46.9335C107.172 46.4555 106.946 46.0181 106.614 45.6795C106.283 45.3409 105.861 45.1171 105.407 45.0379C104.952 44.9586 104.485 45.0278 104.069 45.236C103.652 45.4443 103.305 45.7818 103.074 46.2037C102.843 46.6256 102.739 47.1119 102.776 47.5979L102.776 47.5979Z" fill="#FFB8B8"/>
<path d="M95.4072 56.7234L93.7358 61.6116C93.6882 61.7506 93.6129 61.8772 93.5149 61.9827C93.4169 62.0882 93.2986 62.1702 93.168 62.2229C93.0374 62.2757 92.8976 62.2981 92.7581 62.2885C92.6186 62.279 92.4827 62.2377 92.3596 62.1676L88.0471 59.7095C87.3757 59.4482 86.8298 58.9158 86.5289 58.2292C86.228 57.5426 86.1968 56.7578 86.4421 56.0468C86.6875 55.3359 87.1892 54.757 87.8375 54.4369C88.4857 54.1168 89.2275 54.0818 89.9001 54.3395L94.6857 55.3646C94.8227 55.394 94.9521 55.4543 95.0651 55.5414C95.1781 55.6284 95.2721 55.7403 95.3405 55.8692C95.409 55.9982 95.4504 56.1412 95.4619 56.2886C95.4734 56.436 95.4547 56.5843 95.4072 56.7234V56.7234Z" fill="#6C63FF"/>
<path d="M90.7941 45.8496H88.694L87.7675 43.105L87.5822 45.8496H86.5784L86.0379 44.2486L85.9299 45.8496C83.3031 47.0221 80.8131 47.0545 78.4713 45.8496C78.4713 44.2724 79.0635 42.7599 80.1177 41.6447C81.1718 40.5295 82.6015 39.903 84.0922 39.903H85.1732C86.664 39.903 88.0937 40.5295 89.1478 41.6447C90.2019 42.7599 90.7941 44.2724 90.7941 45.8496V45.8496Z" fill="#2F2E41"/>
<path d="M34.7076 104.611H33.9509V103.811C33.9509 103.538 33.8484 103.276 33.666 103.083C33.4835 102.89 33.2361 102.782 32.978 102.782C32.72 102.782 32.4726 102.89 32.2901 103.083C32.1077 103.276 32.0052 103.538 32.0052 103.811V104.611H31.2485C30.9905 104.611 30.7431 104.72 30.5606 104.913C30.3782 105.106 30.2757 105.368 30.2757 105.64C30.2757 105.913 30.3782 106.175 30.5606 106.368C30.7431 106.561 30.9905 106.67 31.2485 106.67H32.0052V107.47C32.0052 107.743 32.1077 108.005 32.2901 108.198C32.4726 108.391 32.72 108.499 32.978 108.499C33.2361 108.499 33.4835 108.391 33.666 108.198C33.8484 108.005 33.9509 107.743 33.9509 107.47V106.67H34.7076C34.9656 106.67 35.213 106.561 35.3955 106.368C35.5779 106.175 35.6804 105.913 35.6804 105.64C35.6804 105.368 35.5779 105.106 35.3955 104.913C35.213 104.72 34.9656 104.611 34.7076 104.611V104.611Z" fill="white"/>
<path d="M146.08 84.9783H145.686V84.562C145.686 84.4201 145.633 84.284 145.538 84.1836C145.443 84.0832 145.314 84.0268 145.18 84.0268C145.046 84.0268 144.917 84.0832 144.823 84.1836C144.728 84.284 144.674 84.4201 144.674 84.562V84.9783H144.281C144.147 84.9783 144.018 85.0347 143.923 85.135C143.828 85.2354 143.775 85.3715 143.775 85.5135C143.775 85.6554 143.828 85.7916 143.923 85.8919C144.018 85.9923 144.147 86.0487 144.281 86.0487H144.674V86.4649C144.674 86.6069 144.728 86.743 144.823 86.8434C144.917 86.9437 145.046 87.0001 145.18 87.0001C145.314 87.0001 145.443 86.9437 145.538 86.8434C145.633 86.743 145.686 86.6069 145.686 86.4649V86.0487H146.08C146.214 86.0489 146.342 85.9928 146.438 85.8926C146.533 85.7924 146.586 85.6564 146.586 85.5144C146.587 85.3725 146.534 85.2363 146.439 85.1357C146.344 85.0352 146.216 84.9785 146.081 84.9783H146.08Z" fill="#FF6584"/>
<path d="M31.2831 57.3036H30.8897V56.8874C30.8899 56.7454 30.8369 56.6092 30.7422 56.5087C30.6475 56.4081 30.5189 56.3515 30.3847 56.3512C30.3183 56.3511 30.2525 56.3648 30.1911 56.3916C30.1296 56.4183 30.0738 56.4576 30.0267 56.5072C29.9317 56.6074 29.8781 56.7435 29.8779 56.8854V57.3037H29.4844C29.418 57.3035 29.3522 57.3173 29.2908 57.344C29.2294 57.3708 29.1735 57.4101 29.1265 57.4597C29.0794 57.5094 29.042 57.5683 29.0165 57.6332C28.991 57.6981 28.9778 57.7676 28.9777 57.8379C28.9775 57.9082 28.9905 57.9778 29.0158 58.0428C29.0412 58.1078 29.0783 58.1668 29.1252 58.2166C29.1721 58.2664 29.2278 58.3059 29.2891 58.3329C29.3505 58.36 29.4162 58.3739 29.4827 58.374H29.8779V58.7903C29.8777 58.9323 29.9307 59.0685 30.0254 59.169C30.1201 59.2696 30.2487 59.3262 30.3828 59.3265C30.517 59.3268 30.6458 59.2706 30.7408 59.1704C30.8359 59.0703 30.8894 58.9342 30.8897 58.7923V58.374H31.2831C31.4173 58.3744 31.5461 58.3184 31.6413 58.2184C31.7364 58.1183 31.7901 57.9823 31.7904 57.8404C31.7908 57.6984 31.7379 57.5621 31.6433 57.4615C31.5487 57.3608 31.4202 57.3041 31.286 57.3037H31.2849L31.2831 57.3036Z" fill="#6C63FF"/>
<path d="M60.4687 57.3036H60.0752V56.8874C60.0754 56.7454 60.0224 56.6092 59.9277 56.5087C59.833 56.4081 59.7044 56.3515 59.5703 56.3512C59.4361 56.3509 59.3073 56.4071 59.2123 56.5072C59.1172 56.6074 59.0637 56.7435 59.0634 56.8854V57.3037H58.67C58.5358 57.3034 58.407 57.3596 58.312 57.4597C58.217 57.5599 58.1634 57.696 58.1632 57.8379C58.163 57.9798 58.216 58.1161 58.3107 58.2166C58.4054 58.3172 58.534 58.3738 58.6682 58.374H59.0634V58.7903C59.0632 58.9323 59.1162 59.0685 59.2109 59.169C59.3056 59.2696 59.4342 59.3262 59.5684 59.3265C59.7025 59.3268 59.8313 59.2706 59.9264 59.1704C60.0214 59.0703 60.0749 58.9342 60.0752 58.7923V58.374H60.4687C60.6028 58.3744 60.7317 58.3184 60.8268 58.2184C60.9219 58.1183 60.9756 57.9823 60.976 57.8404C60.9764 57.6984 60.9234 57.5621 60.8288 57.4615C60.7342 57.3608 60.6057 57.3041 60.4715 57.3037H60.4704L60.4687 57.3036Z" fill="white"/>
<path d="M160.997 112.195H160.603V111.779C160.603 111.637 160.55 111.501 160.455 111.401C160.36 111.3 160.231 111.244 160.097 111.244C159.963 111.244 159.834 111.3 159.74 111.401C159.645 111.501 159.591 111.637 159.591 111.779V112.195H159.198C159.064 112.195 158.935 112.252 158.84 112.352C158.745 112.453 158.692 112.589 158.692 112.731C158.692 112.873 158.745 113.009 158.84 113.109C158.935 113.209 159.064 113.266 159.198 113.266H159.591V113.682C159.591 113.824 159.645 113.96 159.74 114.061C159.834 114.161 159.963 114.217 160.097 114.217C160.231 114.217 160.36 114.161 160.455 114.061C160.55 113.96 160.603 113.824 160.603 113.682V113.266H160.997C161.131 113.266 161.259 113.209 161.354 113.109C161.449 113.009 161.502 112.873 161.502 112.731C161.502 112.589 161.449 112.453 161.354 112.352C161.259 112.252 161.131 112.195 160.997 112.195V112.195Z" fill="white"/>
<path d="M115.597 67.5959H115.203V67.1796C115.203 67.0376 115.15 66.9015 115.055 66.8012C114.96 66.7008 114.832 66.6444 114.698 66.6444C114.563 66.6444 114.435 66.7008 114.34 66.8012C114.245 66.9015 114.192 67.0376 114.192 67.1796V67.5959H113.798C113.664 67.5959 113.535 67.6522 113.441 67.7526C113.346 67.853 113.292 67.9891 113.292 68.131C113.292 68.273 113.346 68.4091 113.441 68.5095C113.535 68.6099 113.664 68.6662 113.798 68.6662H114.192V69.0825C114.192 69.2245 114.245 69.3606 114.34 69.4609C114.435 69.5613 114.563 69.6177 114.698 69.6177C114.832 69.6177 114.96 69.5613 115.055 69.4609C115.15 69.3606 115.203 69.2245 115.203 69.0825V68.6662H115.597C115.663 68.6664 115.729 68.6526 115.791 68.6259C115.852 68.5991 115.908 68.5598 115.955 68.5102C116.002 68.4605 116.039 68.4016 116.065 68.3367C116.09 68.2718 116.104 68.2023 116.104 68.132C116.104 68.0617 116.091 67.9921 116.066 67.9271C116.04 67.8621 116.003 67.8031 115.956 67.7533C115.909 67.7035 115.854 67.664 115.792 67.637C115.731 67.6099 115.665 67.596 115.599 67.5959H115.597Z" fill="white"/>
<path d="M46.2002 79.0317H45.8067V78.6154C45.807 78.4735 45.7539 78.3372 45.6592 78.2367C45.5645 78.1361 45.4359 78.0795 45.3018 78.0792C45.1676 78.0789 45.0388 78.1351 44.9438 78.2353C44.8487 78.3354 44.7952 78.4715 44.7949 78.6134V79.0317H44.4015C44.2673 79.0314 44.1385 79.0876 44.0435 79.1878C43.9485 79.288 43.8949 79.424 43.8947 79.5659C43.8945 79.7079 43.9475 79.8441 44.0422 79.9446C44.137 80.0452 44.2655 80.1018 44.3997 80.1021H44.7949V80.5183C44.7947 80.6603 44.8478 80.7965 44.9424 80.897C45.0371 80.9976 45.1657 81.0542 45.2999 81.0545C45.4341 81.0548 45.5628 80.9986 45.6579 80.8985C45.7529 80.7983 45.8065 80.6623 45.8067 80.5203V80.1021H46.2002C46.3343 80.1023 46.4631 80.0462 46.5581 79.946C46.6532 79.8458 46.7067 79.7097 46.7069 79.5678C46.7072 79.4259 46.6541 79.2896 46.5594 79.1891C46.4647 79.0885 46.3361 79.0319 46.202 79.0317L46.2002 79.0317Z" fill="white"/>
<path d="M47.4973 41.0648H47.1038V40.6485C47.1041 40.5066 47.051 40.3704 46.9563 40.2698C46.8616 40.1693 46.7331 40.1126 46.5989 40.1124C46.4647 40.1121 46.336 40.1682 46.2409 40.2684C46.1459 40.3686 46.0923 40.5046 46.0921 40.6465V41.0648H45.6986C45.5644 41.0646 45.4357 41.1207 45.3406 41.2209C45.2456 41.3211 45.1921 41.4571 45.1918 41.5991C45.1916 41.741 45.2447 41.8772 45.3394 41.9778C45.4341 42.0783 45.5627 42.1349 45.6968 42.1352H46.0921V42.5515C46.0918 42.6934 46.1449 42.8296 46.2396 42.9302C46.3343 43.0307 46.4629 43.0874 46.597 43.0876C46.7312 43.0879 46.86 43.0318 46.955 42.9316C47.0501 42.8314 47.1036 42.6954 47.1038 42.5535V42.1352H47.4973C47.6315 42.1354 47.7602 42.0793 47.8553 41.9791C47.9503 41.8789 48.0038 41.7429 48.0041 41.6009C48.0043 41.459 47.9512 41.3228 47.8565 41.2222C47.7618 41.1217 47.6333 41.0651 47.4991 41.0648V41.0648L47.4973 41.0648Z" fill="white"/>
<path d="M114.698 26.2996C99.0379 17.9308 85.9057 20.6502 85.7291 19.2067C85.7293 16.823 90.2383 14.6967 98.0999 13.373C98.1279 13.368 98.1566 13.3689 98.1843 13.3756C98.212 13.3823 98.2382 13.3948 98.2613 13.4122C98.2845 13.4297 98.3041 13.4517 98.3192 13.4772C98.3343 13.5027 98.3445 13.5311 98.3492 13.5607C98.3539 13.5904 98.353 13.6207 98.3466 13.65C98.3402 13.6793 98.3284 13.707 98.3119 13.7314C98.2954 13.7559 98.2745 13.7767 98.2504 13.7926C98.2263 13.8085 98.1994 13.8192 98.1714 13.8242L98.1706 13.8243L98.1679 13.8248C90.7622 15.0717 86.1616 17.134 86.1615 19.2067C86.1612 22.8021 99.2292 25.8407 114.698 25.8422C130.167 25.8437 143.235 22.8075 143.235 19.2121C143.236 17.1307 138.606 15.0625 131.153 13.8149C131.125 13.8104 131.098 13.8001 131.074 13.7845C131.05 13.7689 131.028 13.7485 131.012 13.7243C130.995 13.7001 130.983 13.6726 130.976 13.6434C130.969 13.6142 130.968 13.5839 130.972 13.5543C130.976 13.5246 130.986 13.4961 131.001 13.4704C131.016 13.4447 131.035 13.4223 131.058 13.4045C131.081 13.3867 131.107 13.3739 131.134 13.3667C131.162 13.3595 131.19 13.3582 131.219 13.3627L131.219 13.3629L131.221 13.3631C139.131 14.6874 143.668 16.8193 143.668 19.2122C143.667 23.188 129.197 34.0483 114.698 26.2996Z" fill="#3F3D56"/>
<rect x="11.1046" y="47" width="14.569" height="75" fill="#C4C4C4"/>
</g>
<path d="M161.159 83H159.045C158.92 82.392 158.702 81.858 158.389 81.3977C158.082 80.9375 157.707 80.5511 157.264 80.2386C156.827 79.9205 156.341 79.6818 155.807 79.5227C155.273 79.3636 154.716 79.2841 154.136 79.2841C153.08 79.2841 152.122 79.5511 151.264 80.0852C150.412 80.6193 149.733 81.4062 149.227 82.446C148.727 83.4858 148.477 84.7614 148.477 86.2727C148.477 87.7841 148.727 89.0597 149.227 90.0994C149.733 91.1392 150.412 91.9261 151.264 92.4602C152.122 92.9943 153.08 93.2614 154.136 93.2614C154.716 93.2614 155.273 93.1818 155.807 93.0227C156.341 92.8636 156.827 92.6278 157.264 92.3153C157.707 91.9972 158.082 91.608 158.389 91.1477C158.702 90.6818 158.92 90.1477 159.045 89.5455H161.159C161 90.4375 160.71 91.2358 160.29 91.9403C159.869 92.6449 159.347 93.2443 158.722 93.7386C158.097 94.2273 157.395 94.5994 156.616 94.8551C155.844 95.1108 155.017 95.2386 154.136 95.2386C152.648 95.2386 151.324 94.875 150.165 94.1477C149.006 93.4205 148.094 92.3864 147.429 91.0455C146.764 89.7045 146.432 88.1136 146.432 86.2727C146.432 84.4318 146.764 82.8409 147.429 81.5C148.094 80.1591 149.006 79.125 150.165 78.3977C151.324 77.6705 152.648 77.3068 154.136 77.3068C155.017 77.3068 155.844 77.4347 156.616 77.6903C157.395 77.946 158.097 78.321 158.722 78.8153C159.347 79.304 159.869 79.9006 160.29 80.6051C160.71 81.304 161 82.1023 161.159 83ZM179.302 86.2727C179.302 88.1136 178.969 89.7045 178.305 91.0455C177.64 92.3864 176.728 93.4205 175.569 94.1477C174.41 94.875 173.086 95.2386 171.597 95.2386C170.109 95.2386 168.785 94.875 167.626 94.1477C166.467 93.4205 165.555 92.3864 164.89 91.0455C164.225 89.7045 163.893 88.1136 163.893 86.2727C163.893 84.4318 164.225 82.8409 164.89 81.5C165.555 80.1591 166.467 79.125 167.626 78.3977C168.785 77.6705 170.109 77.3068 171.597 77.3068C173.086 77.3068 174.41 77.6705 175.569 78.3977C176.728 79.125 177.64 80.1591 178.305 81.5C178.969 82.8409 179.302 84.4318 179.302 86.2727ZM177.256 86.2727C177.256 84.7614 177.004 83.4858 176.498 82.446C175.998 81.4062 175.319 80.6193 174.461 80.0852C173.609 79.5511 172.654 79.2841 171.597 79.2841C170.54 79.2841 169.583 79.5511 168.725 80.0852C167.873 80.6193 167.194 81.4062 166.688 82.446C166.188 83.4858 165.938 84.7614 165.938 86.2727C165.938 87.7841 166.188 89.0597 166.688 90.0994C167.194 91.1392 167.873 91.9261 168.725 92.4602C169.583 92.9943 170.54 93.2614 171.597 93.2614C172.654 93.2614 173.609 92.9943 174.461 92.4602C175.319 91.9261 175.998 91.1392 176.498 90.0994C177.004 89.0597 177.256 87.7841 177.256 86.2727ZM182.856 77.5455H185.379L191.31 92.0341H191.515L197.447 77.5455H199.969V95H197.992V81.7386H197.822L192.367 95H190.458L185.004 81.7386H184.833V95H182.856V77.5455ZM204.207 95V77.5455H210.105C211.474 77.5455 212.594 77.7926 213.463 78.2869C214.338 78.7756 214.986 79.4375 215.406 80.2727C215.827 81.108 216.037 82.0398 216.037 83.0682C216.037 84.0966 215.827 85.0312 215.406 85.8722C214.991 86.7131 214.349 87.3835 213.48 87.8835C212.611 88.3778 211.497 88.625 210.139 88.625H205.912V86.75H210.071C211.009 86.75 211.761 86.5881 212.33 86.2642C212.898 85.9403 213.31 85.5028 213.565 84.9517C213.827 84.3949 213.957 83.767 213.957 83.0682C213.957 82.3693 213.827 81.7443 213.565 81.1932C213.31 80.642 212.895 80.2102 212.321 79.8977C211.747 79.5795 210.986 79.4205 210.037 79.4205H206.321V95H204.207ZM219.442 95V77.5455H221.555V93.125H229.669V95H219.442ZM235.055 77.5455V95H232.942V77.5455H235.055ZM240.009 95H237.793L244.202 77.5455H246.384L252.793 95H250.577L245.362 80.3068H245.225L240.009 95ZM240.827 88.1818H249.759V90.0568H240.827V88.1818ZM269.353 77.5455V95H267.308L257.796 81.2955H257.626V95H255.512V77.5455H257.558L267.103 91.2841H267.273V77.5455H269.353ZM287.628 83H285.514C285.389 82.392 285.17 81.858 284.858 81.3977C284.551 80.9375 284.176 80.5511 283.733 80.2386C283.295 79.9205 282.81 79.6818 282.276 79.5227C281.741 79.3636 281.185 79.2841 280.605 79.2841C279.548 79.2841 278.591 79.5511 277.733 80.0852C276.881 80.6193 276.202 81.4062 275.696 82.446C275.196 83.4858 274.946 84.7614 274.946 86.2727C274.946 87.7841 275.196 89.0597 275.696 90.0994C276.202 91.1392 276.881 91.9261 277.733 92.4602C278.591 92.9943 279.548 93.2614 280.605 93.2614C281.185 93.2614 281.741 93.1818 282.276 93.0227C282.81 92.8636 283.295 92.6278 283.733 92.3153C284.176 91.9972 284.551 91.608 284.858 91.1477C285.17 90.6818 285.389 90.1477 285.514 89.5455H287.628C287.469 90.4375 287.179 91.2358 286.759 91.9403C286.338 92.6449 285.815 93.2443 285.19 93.7386C284.565 94.2273 283.864 94.5994 283.085 94.8551C282.313 95.1108 281.486 95.2386 280.605 95.2386C279.116 95.2386 277.793 94.875 276.634 94.1477C275.474 93.4205 274.563 92.3864 273.898 91.0455C273.233 89.7045 272.901 88.1136 272.901 86.2727C272.901 84.4318 273.233 82.8409 273.898 81.5C274.563 80.1591 275.474 79.125 276.634 78.3977C277.793 77.6705 279.116 77.3068 280.605 77.3068C281.486 77.3068 282.313 77.4347 283.085 77.6903C283.864 77.946 284.565 78.321 285.19 78.8153C285.815 79.304 286.338 79.9006 286.759 80.6051C287.179 81.304 287.469 82.1023 287.628 83ZM291.043 95V77.5455H301.577V79.4205H293.157V85.3182H301.032V87.1932H293.157V93.125H301.714V95H291.043Z" fill="black"/>
<path d="M161.159 83V84H162.352L162.144 82.8255L161.159 83ZM159.045 83L158.066 83.2014L158.23 84H159.045V83ZM158.389 81.3977L157.557 81.9524L157.562 81.9595L158.389 81.3977ZM157.264 80.2386L156.676 81.0474L156.682 81.0517L156.688 81.0559L157.264 80.2386ZM155.807 79.5227L155.521 80.4811L155.521 80.4811L155.807 79.5227ZM151.264 80.0852L150.736 79.2363L150.733 79.2379L151.264 80.0852ZM149.227 82.446L148.328 82.0087L148.326 82.0127L149.227 82.446ZM149.227 90.0994L148.326 90.5328L148.328 90.5368L149.227 90.0994ZM151.264 92.4602L150.733 93.3076L150.736 93.3092L151.264 92.4602ZM155.807 93.0227L155.521 92.0643L155.521 92.0643L155.807 93.0227ZM157.264 92.3153L157.845 93.1291L157.847 93.1277L157.264 92.3153ZM158.389 91.1477L157.559 90.5907L157.557 90.593L158.389 91.1477ZM159.045 89.5455V88.5455H158.232L158.066 89.3422L159.045 89.5455ZM161.159 89.5455L162.144 89.721L162.353 88.5455H161.159V89.5455ZM160.29 91.9403L159.431 91.4279L159.431 91.4279L160.29 91.9403ZM158.722 93.7386L159.338 94.5265L159.342 94.523L158.722 93.7386ZM156.616 94.8551L156.304 93.9051L156.302 93.9057L156.616 94.8551ZM150.165 94.1477L149.633 94.9948L149.633 94.9948L150.165 94.1477ZM147.429 91.0455L148.325 90.6013L148.325 90.6013L147.429 91.0455ZM156.616 77.6903L156.302 78.6397L156.304 78.6404L156.616 77.6903ZM158.722 78.8153L158.101 79.5997L158.106 79.6031L158.722 78.8153ZM160.29 80.6051L159.431 81.1176L159.433 81.1206L160.29 80.6051ZM161.159 82H159.045V84H161.159V82ZM160.025 82.7986C159.877 82.0766 159.611 81.4171 159.217 80.836L157.562 81.9595C157.792 82.2988 157.964 82.7075 158.066 83.2014L160.025 82.7986ZM159.221 80.843C158.847 80.2824 158.386 79.8063 157.84 79.4214L156.688 81.0559C157.028 81.2959 157.317 81.5926 157.557 81.9524L159.221 80.843ZM157.852 79.4299C157.32 79.043 156.732 78.7548 156.092 78.5643L155.521 80.4811C155.95 80.6088 156.333 80.7979 156.676 81.0474L157.852 79.4299ZM156.092 78.5643C155.462 78.3766 154.809 78.2841 154.136 78.2841V80.2841C154.623 80.2841 155.084 80.3507 155.521 80.4811L156.092 78.5643ZM154.136 78.2841C152.902 78.2841 151.76 78.5988 150.736 79.2363L151.793 80.9342C152.485 80.5034 153.257 80.2841 154.136 80.2841V78.2841ZM150.733 79.2379C149.7 79.8856 148.903 80.8262 148.328 82.0087L150.127 82.8834C150.563 81.9863 151.124 81.353 151.795 80.9326L150.733 79.2379ZM148.326 82.0127C147.744 83.2228 147.477 84.6559 147.477 86.2727H149.477C149.477 84.8668 149.71 83.7488 150.128 82.8794L148.326 82.0127ZM147.477 86.2727C147.477 87.8895 147.744 89.3227 148.326 90.5328L150.128 89.6661C149.71 88.7967 149.477 87.6787 149.477 86.2727H147.477ZM148.328 90.5368C148.903 91.7193 149.7 92.6598 150.733 93.3076L151.795 91.6129C151.124 91.1924 150.563 90.5591 150.127 89.6621L148.328 90.5368ZM150.736 93.3092C151.76 93.9466 152.902 94.2614 154.136 94.2614V92.2614C153.257 92.2614 152.485 92.042 151.793 91.6113L150.736 93.3092ZM154.136 94.2614C154.809 94.2614 155.462 94.1689 156.092 93.9811L155.521 92.0643C155.084 92.1947 154.623 92.2614 154.136 92.2614V94.2614ZM156.092 93.9811C156.728 93.7916 157.315 93.5081 157.845 93.1291L156.683 91.5016C156.339 91.7475 155.953 91.9356 155.521 92.0643L156.092 93.9811ZM157.847 93.1277C158.39 92.7383 158.849 92.2614 159.221 91.7024L157.557 90.593C157.316 90.9545 157.025 91.256 156.681 91.503L157.847 93.1277ZM159.22 91.7048C159.611 91.1217 159.876 90.4651 160.025 89.7487L158.066 89.3422C157.965 89.8303 157.793 90.2419 157.559 90.5907L159.22 91.7048ZM159.045 90.5455H161.159V88.5455H159.045V90.5455ZM160.175 89.3699C160.035 90.1554 159.783 90.8374 159.431 91.4279L161.148 92.4528C161.637 91.6342 161.965 90.7196 162.144 89.721L160.175 89.3699ZM159.431 91.4279C159.071 92.0312 158.628 92.5376 158.101 92.9543L159.342 94.523C160.065 93.951 160.668 93.2586 161.148 92.4528L159.431 91.4279ZM158.106 92.9508C157.575 93.3659 156.977 93.6843 156.304 93.9051L156.929 95.8052C157.813 95.5146 158.618 95.0887 159.338 94.5264L158.106 92.9508ZM156.302 93.9057C155.639 94.1252 154.919 94.2386 154.136 94.2386V96.2386C155.115 96.2386 156.049 96.0963 156.931 95.8045L156.302 93.9057ZM154.136 94.2386C152.819 94.2386 151.682 93.9193 150.696 93.3007L149.633 94.9948C150.966 95.8307 152.477 96.2386 154.136 96.2386V94.2386ZM150.696 93.3007C149.708 92.6806 148.916 91.7929 148.325 90.6013L146.533 91.4896C147.272 92.9799 148.303 94.1603 149.633 94.9948L150.696 93.3007ZM148.325 90.6013C147.743 89.4265 147.432 87.9943 147.432 86.2727H145.432C145.432 88.2329 145.786 89.9825 146.533 91.4896L148.325 90.6013ZM147.432 86.2727C147.432 84.5511 147.743 83.1189 148.325 81.9442L146.533 81.0558C145.786 82.5629 145.432 84.3125 145.432 86.2727H147.432ZM148.325 81.9442C148.916 80.7526 149.708 79.8649 150.696 79.2448L149.633 77.5507C148.303 78.3851 147.272 79.5656 146.533 81.0558L148.325 81.9442ZM150.696 79.2448C151.682 78.6262 152.819 78.3068 154.136 78.3068V76.3068C152.477 76.3068 150.966 76.7147 149.633 77.5507L150.696 79.2448ZM154.136 78.3068C154.919 78.3068 155.639 78.4202 156.302 78.6397L156.931 76.741C156.049 76.4491 155.115 76.3068 154.136 76.3068V78.3068ZM156.304 78.6404C156.974 78.8604 157.571 79.1804 158.101 79.5997L159.342 78.031C158.622 77.4617 157.815 77.0316 156.929 76.7403L156.304 78.6404ZM158.106 79.6031C158.63 80.0132 159.072 80.5153 159.431 81.1176L161.148 80.0927C160.667 79.2858 160.063 78.5948 159.338 78.0275L158.106 79.6031ZM159.433 81.1206C159.783 81.703 160.034 82.3832 160.174 83.1745L162.144 82.8255C161.966 81.8214 161.637 80.905 161.147 80.0896L159.433 81.1206ZM178.305 91.0455L177.409 90.6013L177.409 90.6013L178.305 91.0455ZM175.569 94.1477L176.1 94.9948L176.1 94.9948L175.569 94.1477ZM167.626 94.1477L167.094 94.9948L167.094 94.9948L167.626 94.1477ZM164.89 91.0455L165.786 90.6013L165.786 90.6013L164.89 91.0455ZM175.569 78.3977L176.1 77.5507L176.1 77.5507L175.569 78.3977ZM178.305 81.5L177.409 81.9442L177.409 81.9442L178.305 81.5ZM176.498 82.446L175.597 82.8794L175.599 82.8834L176.498 82.446ZM174.461 80.0852L173.93 80.9326L173.932 80.9342L174.461 80.0852ZM168.725 80.0852L168.197 79.2363L168.194 79.2379L168.725 80.0852ZM166.688 82.446L165.789 82.0087L165.787 82.0127L166.688 82.446ZM166.688 90.0994L165.787 90.5328L165.789 90.5368L166.688 90.0994ZM168.725 92.4602L168.194 93.3076L168.197 93.3092L168.725 92.4602ZM174.461 92.4602L173.932 91.6113L173.93 91.6129L174.461 92.4602ZM176.498 90.0994L175.599 89.6621L175.597 89.6661L176.498 90.0994ZM178.302 86.2727C178.302 87.9943 177.991 89.4265 177.409 90.6013L179.201 91.4896C179.948 89.9825 180.302 88.2329 180.302 86.2727H178.302ZM177.409 90.6013C176.818 91.7929 176.026 92.6806 175.037 93.3007L176.1 94.9948C177.43 94.1603 178.462 92.9799 179.201 91.4896L177.409 90.6013ZM175.037 93.3007C174.052 93.9193 172.915 94.2386 171.597 94.2386V96.2386C173.257 96.2386 174.768 95.8307 176.1 94.9948L175.037 93.3007ZM171.597 94.2386C170.28 94.2386 169.143 93.9193 168.157 93.3007L167.094 94.9948C168.427 95.8307 169.938 96.2386 171.597 96.2386V94.2386ZM168.157 93.3007C167.169 92.6806 166.377 91.7929 165.786 90.6013L163.994 91.4896C164.733 92.9799 165.764 94.1603 167.094 94.9948L168.157 93.3007ZM165.786 90.6013C165.203 89.4265 164.893 87.9943 164.893 86.2727H162.893C162.893 88.2329 163.247 89.9825 163.994 91.4896L165.786 90.6013ZM164.893 86.2727C164.893 84.5511 165.203 83.1189 165.786 81.9442L163.994 81.0558C163.247 82.5629 162.893 84.3125 162.893 86.2727H164.893ZM165.786 81.9442C166.377 80.7526 167.169 79.8649 168.157 79.2448L167.094 77.5507C165.764 78.3851 164.733 79.5656 163.994 81.0558L165.786 81.9442ZM168.157 79.2448C169.143 78.6262 170.28 78.3068 171.597 78.3068V76.3068C169.938 76.3068 168.427 76.7147 167.094 77.5507L168.157 79.2448ZM171.597 78.3068C172.915 78.3068 174.052 78.6262 175.037 79.2448L176.1 77.5507C174.768 76.7147 173.257 76.3068 171.597 76.3068V78.3068ZM175.037 79.2448C176.026 79.8649 176.818 80.7526 177.409 81.9442L179.201 81.0558C178.462 79.5656 177.43 78.3851 176.1 77.5507L175.037 79.2448ZM177.409 81.9442C177.991 83.1189 178.302 84.5511 178.302 86.2727H180.302C180.302 84.3125 179.948 82.5629 179.201 81.0558L177.409 81.9442ZM178.256 86.2727C178.256 84.6545 177.986 83.2199 177.397 82.0087L175.599 82.8834C176.021 83.7517 176.256 84.8682 176.256 86.2727H178.256ZM177.399 82.0127C176.829 80.8266 176.03 79.8843 174.989 79.2363L173.932 80.9342C174.607 81.3543 175.167 81.9859 175.597 82.8794L177.399 82.0127ZM174.992 79.2379C173.972 78.5989 172.832 78.2841 171.597 78.2841V80.2841C172.476 80.2841 173.245 80.5034 173.93 80.9326L174.992 79.2379ZM171.597 78.2841C170.363 78.2841 169.221 78.5988 168.197 79.2363L169.254 80.9342C169.946 80.5034 170.718 80.2841 171.597 80.2841V78.2841ZM168.194 79.2379C167.16 79.8856 166.364 80.8262 165.789 82.0087L167.587 82.8834C168.024 81.9863 168.585 81.353 169.256 80.9326L168.194 79.2379ZM165.787 82.0127C165.205 83.2228 164.938 84.6559 164.938 86.2727H166.938C166.938 84.8668 167.171 83.7488 167.589 82.8794L165.787 82.0127ZM164.938 86.2727C164.938 87.8895 165.205 89.3227 165.787 90.5328L167.589 89.6661C167.171 88.7967 166.938 87.6787 166.938 86.2727H164.938ZM165.789 90.5368C166.364 91.7193 167.16 92.6598 168.194 93.3076L169.256 91.6129C168.585 91.1924 168.024 90.5591 167.587 89.6621L165.789 90.5368ZM168.197 93.3092C169.221 93.9466 170.363 94.2614 171.597 94.2614V92.2614C170.718 92.2614 169.946 92.042 169.254 91.6113L168.197 93.3092ZM171.597 94.2614C172.832 94.2614 173.972 93.9466 174.992 93.3076L173.93 91.6129C173.245 92.042 172.476 92.2614 171.597 92.2614V94.2614ZM174.989 93.3092C176.03 92.6611 176.829 91.7188 177.399 90.5328L175.597 89.6661C175.167 90.5596 174.607 91.1912 173.932 91.6113L174.989 93.3092ZM177.397 90.5368C177.986 89.3255 178.256 87.8909 178.256 86.2727H176.256C176.256 87.6773 176.021 88.7938 175.599 89.6621L177.397 90.5368ZM182.856 77.5455V76.5455H181.856V77.5455H182.856ZM185.379 77.5455L186.304 77.1666L186.05 76.5455H185.379V77.5455ZM191.31 92.0341L190.385 92.413L190.639 93.0341H191.31V92.0341ZM191.515 92.0341V93.0341H192.186L192.44 92.413L191.515 92.0341ZM197.447 77.5455V76.5455H196.776L196.521 77.1666L197.447 77.5455ZM199.969 77.5455H200.969V76.5455H199.969V77.5455ZM199.969 95V96H200.969V95H199.969ZM197.992 95H196.992V96H197.992V95ZM197.992 81.7386H198.992V80.7386H197.992V81.7386ZM197.822 81.7386V80.7386H197.152L196.897 81.3582L197.822 81.7386ZM192.367 95V96H193.037L193.292 95.3804L192.367 95ZM190.458 95L189.533 95.3804L189.788 96H190.458V95ZM185.004 81.7386L185.928 81.3582L185.674 80.7386H185.004V81.7386ZM184.833 81.7386V80.7386H183.833V81.7386H184.833ZM184.833 95V96H185.833V95H184.833ZM182.856 95H181.856V96H182.856V95ZM182.856 78.5455H185.379V76.5455H182.856V78.5455ZM184.453 77.9243L190.385 92.413L192.236 91.6552L186.304 77.1666L184.453 77.9243ZM191.31 93.0341H191.515V91.0341H191.31V93.0341ZM192.44 92.413L198.372 77.9243L196.521 77.1666L190.589 91.6552L192.44 92.413ZM197.447 78.5455H199.969V76.5455H197.447V78.5455ZM198.969 77.5455V95H200.969V77.5455H198.969ZM199.969 94H197.992V96H199.969V94ZM198.992 95V81.7386H196.992V95H198.992ZM197.992 80.7386H197.822V82.7386H197.992V80.7386ZM196.897 81.3582L191.442 94.6196L193.292 95.3804L198.747 82.119L196.897 81.3582ZM192.367 94H190.458V96H192.367V94ZM191.383 94.6196L185.928 81.3582L184.079 82.119L189.533 95.3804L191.383 94.6196ZM185.004 80.7386H184.833V82.7386H185.004V80.7386ZM183.833 81.7386V95H185.833V81.7386H183.833ZM184.833 94H182.856V96H184.833V94ZM183.856 95V77.5455H181.856V95H183.856ZM204.207 95H203.207V96H204.207V95ZM204.207 77.5455V76.5455H203.207V77.5455H204.207ZM213.463 78.2869L212.969 79.1562L212.976 79.16L213.463 78.2869ZM215.406 80.2727L214.513 80.7224L214.513 80.7224L215.406 80.2727ZM215.406 85.8722L214.512 85.4249L214.509 85.4298L215.406 85.8722ZM213.48 87.8835L213.974 88.7528L213.979 88.7504L213.48 87.8835ZM205.912 88.625H204.912V89.625H205.912V88.625ZM205.912 86.75V85.75H204.912V86.75H205.912ZM212.33 86.2642L211.834 85.3954L211.834 85.3954L212.33 86.2642ZM213.565 84.9517L212.66 84.5268L212.658 84.5309L213.565 84.9517ZM213.565 81.1932L212.658 81.614L212.662 81.6217L213.565 81.1932ZM212.321 79.8977L211.836 80.7723L211.843 80.776L212.321 79.8977ZM206.321 79.4205V78.4205H205.321V79.4205H206.321ZM206.321 95V96H207.321V95H206.321ZM205.207 95V77.5455H203.207V95H205.207ZM204.207 78.5455H210.105V76.5455H204.207V78.5455ZM210.105 78.5455C211.362 78.5455 212.296 78.7735 212.969 79.1562L213.957 77.4176C212.892 76.8118 211.587 76.5455 210.105 76.5455V78.5455ZM212.976 79.16C213.689 79.5586 214.189 80.0787 214.513 80.7224L216.299 79.8231C215.783 78.7963 214.987 77.9926 213.951 77.4138L212.976 79.16ZM214.513 80.7224C214.856 81.4046 215.037 82.1801 215.037 83.0682H217.037C217.037 81.8994 216.797 80.8113 216.299 79.8231L214.513 80.7224ZM215.037 83.0682C215.037 83.9562 214.857 84.7356 214.512 85.4249L216.301 86.3194C216.797 85.3269 217.037 84.237 217.037 83.0682H215.037ZM214.509 85.4298C214.189 86.0803 213.692 86.6083 212.982 87.0167L213.979 88.7504C215.007 88.1587 215.794 87.3458 216.303 86.3145L214.509 85.4298ZM212.986 87.0142C212.312 87.3976 211.383 87.625 210.139 87.625V89.625C211.611 89.625 212.91 89.3581 213.974 88.7528L212.986 87.0142ZM210.139 87.625H205.912V89.625H210.139V87.625ZM206.912 88.625V86.75H204.912V88.625H206.912ZM205.912 87.75H210.071V85.75H205.912V87.75ZM210.071 87.75C211.111 87.75 212.054 87.5722 212.825 87.133L211.834 85.3954C211.469 85.604 210.906 85.75 210.071 85.75V87.75ZM212.825 87.133C213.559 86.7145 214.123 86.1268 214.472 85.3725L212.658 84.5309C212.497 84.8789 212.237 85.1662 211.834 85.3954L212.825 87.133ZM214.471 85.3766C214.802 84.6698 214.957 83.8939 214.957 83.0682H212.957C212.957 83.6402 212.851 84.12 212.66 84.5268L214.471 85.3766ZM214.957 83.0682C214.957 82.2427 214.802 81.468 214.469 80.7647L212.662 81.6217C212.851 82.0207 212.957 82.4959 212.957 83.0682H214.957ZM214.472 80.7723C214.12 80.0117 213.546 79.4263 212.799 79.0195L211.843 80.776C212.243 80.9941 212.5 81.2724 212.658 81.614L214.472 80.7723ZM212.806 79.0232C212.032 78.5941 211.085 78.4205 210.037 78.4205V80.4205C210.887 80.4205 211.462 80.565 211.836 80.7723L212.806 79.0232ZM210.037 78.4205H206.321V80.4205H210.037V78.4205ZM205.321 79.4205V95H207.321V79.4205H205.321ZM206.321 94H204.207V96H206.321V94ZM219.442 95H218.442V96H219.442V95ZM219.442 77.5455V76.5455H218.442V77.5455H219.442ZM221.555 77.5455H222.555V76.5455H221.555V77.5455ZM221.555 93.125H220.555V94.125H221.555V93.125ZM229.669 93.125H230.669V92.125H229.669V93.125ZM229.669 95V96H230.669V95H229.669ZM220.442 95V77.5455H218.442V95H220.442ZM219.442 78.5455H221.555V76.5455H219.442V78.5455ZM220.555 77.5455V93.125H222.555V77.5455H220.555ZM221.555 94.125H229.669V92.125H221.555V94.125ZM228.669 93.125V95H230.669V93.125H228.669ZM229.669 94H219.442V96H229.669V94ZM235.055 77.5455H236.055V76.5455H235.055V77.5455ZM235.055 95V96H236.055V95H235.055ZM232.942 95H231.942V96H232.942V95ZM232.942 77.5455V76.5455H231.942V77.5455H232.942ZM234.055 77.5455V95H236.055V77.5455H234.055ZM235.055 94H232.942V96H235.055V94ZM233.942 95V77.5455H231.942V95H233.942ZM232.942 78.5455H235.055V76.5455H232.942V78.5455ZM240.009 95V96H240.715L240.952 95.3345L240.009 95ZM237.793 95L236.855 94.6553L236.361 96H237.793V95ZM244.202 77.5455V76.5455H243.504L243.264 77.2008L244.202 77.5455ZM246.384 77.5455L247.323 77.2008L247.082 76.5455H246.384V77.5455ZM252.793 95V96H254.226L253.732 94.6553L252.793 95ZM250.577 95L249.635 95.3345L249.871 96H250.577V95ZM245.362 80.3068L246.304 79.9723L246.068 79.3068H245.362V80.3068ZM245.225 80.3068V79.3068H244.519L244.283 79.9723L245.225 80.3068ZM240.827 88.1818V87.1818H239.827V88.1818H240.827ZM249.759 88.1818H250.759V87.1818H249.759V88.1818ZM249.759 90.0568V91.0568H250.759V90.0568H249.759ZM240.827 90.0568H239.827V91.0568H240.827V90.0568ZM240.009 94H237.793V96H240.009V94ZM238.732 95.3447L245.141 77.8901L243.264 77.2008L236.855 94.6553L238.732 95.3447ZM244.202 78.5455H246.384V76.5455H244.202V78.5455ZM245.446 77.8901L251.855 95.3447L253.732 94.6553L247.323 77.2008L245.446 77.8901ZM252.793 94H250.577V96H252.793V94ZM251.52 94.6655L246.304 79.9723L244.419 80.6414L249.635 95.3345L251.52 94.6655ZM245.362 79.3068H245.225V81.3068H245.362V79.3068ZM244.283 79.9723L239.067 94.6655L240.952 95.3345L246.168 80.6414L244.283 79.9723ZM240.827 89.1818H249.759V87.1818H240.827V89.1818ZM248.759 88.1818V90.0568H250.759V88.1818H248.759ZM249.759 89.0568H240.827V91.0568H249.759V89.0568ZM241.827 90.0568V88.1818H239.827V90.0568H241.827ZM269.353 77.5455H270.353V76.5455H269.353V77.5455ZM269.353 95V96H270.353V95H269.353ZM267.308 95L266.486 95.5702L266.784 96H267.308V95ZM257.796 81.2955L258.618 80.7253L258.319 80.2955H257.796V81.2955ZM257.626 81.2955V80.2955H256.626V81.2955H257.626ZM257.626 95V96H258.626V95H257.626ZM255.512 95H254.512V96H255.512V95ZM255.512 77.5455V76.5455H254.512V77.5455H255.512ZM257.558 77.5455L258.379 76.9749L258.08 76.5455H257.558V77.5455ZM267.103 91.2841L266.282 91.8547L266.58 92.2841H267.103V91.2841ZM267.273 91.2841V92.2841H268.273V91.2841H267.273ZM267.273 77.5455V76.5455H266.273V77.5455H267.273ZM268.353 77.5455V95H270.353V77.5455H268.353ZM269.353 94H267.308V96H269.353V94ZM268.129 94.4298L258.618 80.7253L256.975 81.8656L266.486 95.5702L268.129 94.4298ZM257.796 80.2955H257.626V82.2955H257.796V80.2955ZM256.626 81.2955V95H258.626V81.2955H256.626ZM257.626 94H255.512V96H257.626V94ZM256.512 95V77.5455H254.512V95H256.512ZM255.512 78.5455H257.558V76.5455H255.512V78.5455ZM256.736 78.116L266.282 91.8547L267.924 90.7135L258.379 76.9749L256.736 78.116ZM267.103 92.2841H267.273V90.2841H267.103V92.2841ZM268.273 91.2841V77.5455H266.273V91.2841H268.273ZM267.273 78.5455H269.353V76.5455H267.273V78.5455ZM287.628 83V84H288.821L288.612 82.8255L287.628 83ZM285.514 83L284.535 83.2014L284.699 84H285.514V83ZM284.858 81.3977L284.026 81.9524L284.031 81.9595L284.858 81.3977ZM283.733 80.2386L283.145 81.0474L283.151 81.0517L283.157 81.0559L283.733 80.2386ZM282.276 79.5227L281.99 80.4811L281.99 80.4811L282.276 79.5227ZM277.733 80.0852L277.204 79.2363L277.202 79.2379L277.733 80.0852ZM275.696 82.446L274.797 82.0087L274.795 82.0127L275.696 82.446ZM275.696 90.0994L274.795 90.5328L274.797 90.5368L275.696 90.0994ZM277.733 92.4602L277.202 93.3076L277.204 93.3092L277.733 92.4602ZM282.276 93.0227L281.99 92.0643L281.99 92.0643L282.276 93.0227ZM283.733 92.3153L284.314 93.1291L284.316 93.1277L283.733 92.3153ZM284.858 91.1477L284.027 90.5907L284.026 90.593L284.858 91.1477ZM285.514 89.5455V88.5455H284.7L284.535 89.3422L285.514 89.5455ZM287.628 89.5455L288.612 89.721L288.822 88.5455H287.628V89.5455ZM286.759 91.9403L285.9 91.4279L285.9 91.4279L286.759 91.9403ZM285.19 93.7386L285.806 94.5265L285.811 94.523L285.19 93.7386ZM283.085 94.8551L282.773 93.9051L282.771 93.9057L283.085 94.8551ZM276.634 94.1477L276.102 94.9948L276.102 94.9948L276.634 94.1477ZM273.898 91.0455L274.794 90.6013L274.794 90.6013L273.898 91.0455ZM283.085 77.6903L282.771 78.6397L282.773 78.6404L283.085 77.6903ZM285.19 78.8153L284.57 79.5997L284.574 79.6031L285.19 78.8153ZM286.759 80.6051L285.9 81.1176L285.902 81.1206L286.759 80.6051ZM287.628 82H285.514V84H287.628V82ZM286.494 82.7986C286.345 82.0766 286.08 81.4171 285.685 80.836L284.031 81.9595C284.261 82.2988 284.433 82.7075 284.535 83.2014L286.494 82.7986ZM285.69 80.843C285.316 80.2824 284.855 79.8063 284.309 79.4214L283.157 81.0559C283.497 81.2959 283.786 81.5926 284.026 81.9524L285.69 80.843ZM284.321 79.4299C283.789 79.043 283.2 78.7548 282.561 78.5643L281.99 80.4811C282.419 80.6088 282.802 80.7979 283.145 81.0474L284.321 79.4299ZM282.561 78.5643C281.931 78.3766 281.277 78.2841 280.605 78.2841V80.2841C281.092 80.2841 281.552 80.3507 281.99 80.4811L282.561 78.5643ZM280.605 78.2841C279.37 78.2841 278.228 78.5988 277.204 79.2363L278.261 80.9342C278.953 80.5034 279.726 80.2841 280.605 80.2841V78.2841ZM277.202 79.2379C276.168 79.8856 275.372 80.8262 274.797 82.0087L276.595 82.8834C277.032 81.9863 277.593 81.353 278.264 80.9326L277.202 79.2379ZM274.795 82.0127C274.213 83.2228 273.946 84.6559 273.946 86.2727H275.946C275.946 84.8668 276.179 83.7488 276.597 82.8794L274.795 82.0127ZM273.946 86.2727C273.946 87.8895 274.213 89.3227 274.795 90.5328L276.597 89.6661C276.179 88.7967 275.946 87.6787 275.946 86.2727H273.946ZM274.797 90.5368C275.372 91.7193 276.168 92.6598 277.202 93.3076L278.264 91.6129C277.593 91.1924 277.032 90.5591 276.595 89.6621L274.797 90.5368ZM277.204 93.3092C278.228 93.9466 279.37 94.2614 280.605 94.2614V92.2614C279.726 92.2614 278.953 92.042 278.261 91.6113L277.204 93.3092ZM280.605 94.2614C281.277 94.2614 281.931 94.1689 282.561 93.9811L281.99 92.0643C281.552 92.1947 281.092 92.2614 280.605 92.2614V94.2614ZM282.561 93.9811C283.197 93.7916 283.784 93.5081 284.314 93.1291L283.152 91.5016C282.807 91.7475 282.422 91.9356 281.99 92.0643L282.561 93.9811ZM284.316 93.1277C284.858 92.7383 285.317 92.2614 285.69 91.7024L284.026 90.593C283.785 90.9545 283.494 91.256 283.15 91.503L284.316 93.1277ZM285.688 91.7048C286.08 91.1217 286.345 90.4651 286.493 89.7487L284.535 89.3422C284.434 89.8303 284.261 90.2419 284.027 90.5907L285.688 91.7048ZM285.514 90.5455H287.628V88.5455H285.514V90.5455ZM286.643 89.3699C286.503 90.1554 286.252 90.8374 285.9 91.4279L287.617 92.4528C288.106 91.6342 288.434 90.7196 288.612 89.721L286.643 89.3699ZM285.9 91.4279C285.54 92.0312 285.097 92.5376 284.57 92.9543L285.811 94.523C286.534 93.951 287.136 93.2586 287.617 92.4528L285.9 91.4279ZM284.574 92.9508C284.044 93.3659 283.445 93.6843 282.773 93.9051L283.397 95.8052C284.282 95.5146 285.087 95.0887 285.806 94.5264L284.574 92.9508ZM282.771 93.9057C282.108 94.1252 281.388 94.2386 280.605 94.2386V96.2386C281.584 96.2386 282.517 96.0963 283.399 95.8045L282.771 93.9057ZM280.605 94.2386C279.287 94.2386 278.151 93.9193 277.165 93.3007L276.102 94.9948C277.434 95.8307 278.946 96.2386 280.605 96.2386V94.2386ZM277.165 93.3007C276.177 92.6806 275.384 91.7929 274.794 90.6013L273.002 91.4896C273.741 92.9799 274.772 94.1603 276.102 94.9948L277.165 93.3007ZM274.794 90.6013C274.211 89.4265 273.901 87.9943 273.901 86.2727H271.901C271.901 88.2329 272.255 89.9825 273.002 91.4896L274.794 90.6013ZM273.901 86.2727C273.901 84.5511 274.211 83.1189 274.794 81.9442L273.002 81.0558C272.255 82.5629 271.901 84.3125 271.901 86.2727H273.901ZM274.794 81.9442C275.384 80.7526 276.177 79.8649 277.165 79.2448L276.102 77.5507C274.772 78.3851 273.741 79.5656 273.002 81.0558L274.794 81.9442ZM277.165 79.2448C278.151 78.6262 279.287 78.3068 280.605 78.3068V76.3068C278.946 76.3068 277.434 76.7147 276.102 77.5507L277.165 79.2448ZM280.605 78.3068C281.388 78.3068 282.108 78.4202 282.771 78.6397L283.399 76.741C282.517 76.4491 281.584 76.3068 280.605 76.3068V78.3068ZM282.773 78.6404C283.443 78.8604 284.04 79.1804 284.57 79.5997L285.811 78.031C285.091 77.4617 284.284 77.0316 283.397 76.7403L282.773 78.6404ZM284.574 79.6031C285.099 80.0132 285.54 80.5153 285.9 81.1176L287.617 80.0927C287.136 79.2858 286.532 78.5948 285.806 78.0275L284.574 79.6031ZM285.902 81.1206C286.252 81.703 286.503 82.3832 286.643 83.1745L288.612 82.8255C288.435 81.8214 288.106 80.905 287.615 80.0896L285.902 81.1206ZM291.043 95H290.043V96H291.043V95ZM291.043 77.5455V76.5455H290.043V77.5455H291.043ZM301.577 77.5455H302.577V76.5455H301.577V77.5455ZM301.577 79.4205V80.4205H302.577V79.4205H301.577ZM293.157 79.4205V78.4205H292.157V79.4205H293.157ZM293.157 85.3182H292.157V86.3182H293.157V85.3182ZM301.032 85.3182H302.032V84.3182H301.032V85.3182ZM301.032 87.1932V88.1932H302.032V87.1932H301.032ZM293.157 87.1932V86.1932H292.157V87.1932H293.157ZM293.157 93.125H292.157V94.125H293.157V93.125ZM301.714 93.125H302.714V92.125H301.714V93.125ZM301.714 95V96H302.714V95H301.714ZM292.043 95V77.5455H290.043V95H292.043ZM291.043 78.5455H301.577V76.5455H291.043V78.5455ZM300.577 77.5455V79.4205H302.577V77.5455H300.577ZM301.577 78.4205H293.157V80.4205H301.577V78.4205ZM292.157 79.4205V85.3182H294.157V79.4205H292.157ZM293.157 86.3182H301.032V84.3182H293.157V86.3182ZM300.032 85.3182V87.1932H302.032V85.3182H300.032ZM301.032 86.1932H293.157V88.1932H301.032V86.1932ZM292.157 87.1932V93.125H294.157V87.1932H292.157ZM293.157 94.125H301.714V92.125H293.157V94.125ZM300.714 93.125V95H302.714V93.125H300.714ZM301.714 94H291.043V96H301.714V94Z" fill="black"/>
<path d="M170.344 45.5455H171.409V57.1023C171.409 58.2898 171.134 59.3494 170.582 60.2812C170.031 61.2074 169.27 61.9403 168.298 62.4801C167.332 63.0142 166.222 63.2812 164.966 63.2812C163.716 63.2812 162.605 63.0142 161.634 62.4801C160.662 61.9403 159.898 61.2045 159.341 60.2727C158.79 59.3409 158.517 58.2841 158.523 57.1023V45.5455H159.588V57.0426C159.588 58.0483 159.815 58.9432 160.27 59.7273C160.73 60.5114 161.364 61.1307 162.17 61.5852C162.977 62.0341 163.909 62.2585 164.966 62.2585C166.023 62.2585 166.955 62.0341 167.761 61.5852C168.568 61.1307 169.199 60.5114 169.653 59.7273C170.114 58.9432 170.344 58.0483 170.344 57.0426V45.5455ZM189.79 45.5455V63H188.751L177.62 47.4801H177.518V63H176.452V45.5455H177.501L188.631 61.0824H188.734V45.5455H189.79ZM195.893 45.5455V63H194.827V45.5455H195.893ZM200.271 45.5455L205.999 61.6278H206.118L211.845 45.5455H212.97L206.672 63H205.445L199.146 45.5455H200.271ZM216.226 63V45.5455H225.942V46.5341H217.291V53.7699H225.422V54.7585H217.291V62.0114H226.146V63H216.226ZM230.359 63V45.5455H235.737C236.839 45.5455 237.788 45.7614 238.583 46.1932C239.379 46.625 239.989 47.2244 240.415 47.9915C240.842 48.7528 241.055 49.6392 241.055 50.6506C241.055 51.6506 240.842 52.5312 240.415 53.2926C239.989 54.0483 239.379 54.6392 238.583 55.0653C237.793 55.4915 236.847 55.7045 235.745 55.7045H230.93V54.7074H235.719C236.617 54.7074 237.384 54.5398 238.021 54.2045C238.657 53.8693 239.146 53.4006 239.487 52.7983C239.827 52.1903 239.998 51.4744 239.998 50.6506C239.998 49.821 239.827 49.0994 239.487 48.4858C239.146 47.8665 238.654 47.3864 238.012 47.0455C237.376 46.7045 236.609 46.5341 235.711 46.5341H231.424V63H230.359ZM237.526 55.0909L241.822 63H240.594L236.325 55.0909H237.526ZM254.721 49.9091C254.63 48.8239 254.187 47.946 253.391 47.2756C252.602 46.6051 251.579 46.2699 250.323 46.2699C249.477 46.2699 248.724 46.4261 248.065 46.7386C247.406 47.0511 246.888 47.4773 246.513 48.017C246.138 48.5568 245.951 49.1761 245.951 49.875C245.951 50.3239 246.036 50.7301 246.207 51.0938C246.383 51.4517 246.63 51.7727 246.948 52.0568C247.266 52.3352 247.644 52.5795 248.082 52.7898C248.519 53 249.002 53.1847 249.531 53.3438L251.44 53.9062C252.093 54.1051 252.695 54.3352 253.246 54.5966C253.803 54.858 254.286 55.1705 254.695 55.5341C255.11 55.892 255.431 56.3125 255.658 56.7955C255.891 57.2784 256.008 57.8352 256.008 58.4659C256.008 59.3864 255.769 60.2102 255.292 60.9375C254.82 61.6648 254.147 62.2386 253.272 62.6591C252.403 63.0739 251.377 63.2812 250.195 63.2812C249.07 63.2812 248.09 63.0909 247.255 62.7102C246.425 62.3295 245.769 61.8011 245.286 61.125C244.803 60.4432 244.531 59.6591 244.468 58.7727H245.559C245.616 59.4943 245.846 60.1193 246.249 60.6477C246.658 61.1705 247.201 61.5739 247.877 61.858C248.553 62.142 249.326 62.2841 250.195 62.2841C251.133 62.2841 251.96 62.125 252.675 61.8068C253.391 61.483 253.951 61.0341 254.354 60.4602C254.758 59.8864 254.96 59.2187 254.96 58.4574C254.96 57.8437 254.815 57.3182 254.525 56.8807C254.235 56.4432 253.806 56.0653 253.238 55.7472C252.675 55.429 251.977 55.1449 251.141 54.8949L249.104 54.2812C247.741 53.8665 246.698 53.3011 245.977 52.5852C245.261 51.8693 244.903 50.9773 244.903 49.9091C244.903 49.0114 245.141 48.2159 245.619 47.5227C246.096 46.8239 246.744 46.2756 247.562 45.8778C248.386 45.4801 249.315 45.2812 250.349 45.2812C251.388 45.2812 252.306 45.483 253.102 45.8864C253.897 46.2841 254.528 46.8324 254.994 47.5312C255.46 48.2244 255.718 49.017 255.769 49.9091H254.721ZM259.545 63H258.42L264.718 45.5455H265.945L272.244 63H271.119L265.374 46.9176H265.289L259.545 63ZM261.138 56.429H269.525V57.4176H261.138V56.429ZM275.499 63V45.5455H276.565V62.0114H285.087V63H275.499Z" fill="black"/>
<path d="M170.344 45.5455V44.5455H169.344V45.5455H170.344ZM171.409 45.5455H172.409V44.5455H171.409V45.5455ZM170.582 60.2812L171.442 60.7926L171.443 60.7903L170.582 60.2812ZM168.298 62.4801L168.782 63.3552L168.784 63.3543L168.298 62.4801ZM161.634 62.4801L161.148 63.3543L161.152 63.3564L161.634 62.4801ZM159.341 60.2727L158.48 60.7818L158.482 60.7857L159.341 60.2727ZM158.523 57.1023L159.523 57.1071V57.1023H158.523ZM158.523 45.5455V44.5455H157.523V45.5455H158.523ZM159.588 45.5455H160.588V44.5455H159.588V45.5455ZM160.27 59.7273L159.405 60.2288L159.407 60.2335L160.27 59.7273ZM162.17 61.5852L161.68 62.4565L161.684 62.4591L162.17 61.5852ZM167.761 61.5852L168.248 62.4591L168.252 62.4565L167.761 61.5852ZM169.653 59.7273L168.791 59.2211L168.788 59.2257L169.653 59.7273ZM170.344 46.5455H171.409V44.5455H170.344V46.5455ZM170.409 45.5455V57.1023H172.409V45.5455H170.409ZM170.409 57.1023C170.409 58.1285 170.173 59.0092 169.722 59.7722L171.443 60.7903C172.094 59.6897 172.409 58.451 172.409 57.1023H170.409ZM169.723 59.7699C169.265 60.5393 168.635 61.1492 167.813 61.606L168.784 63.3543C169.905 62.7315 170.797 61.8755 171.442 60.7926L169.723 59.7699ZM167.814 61.605C167.016 62.0465 166.076 62.2812 164.966 62.2812V64.2812C166.367 64.2812 167.649 63.982 168.782 63.3552L167.814 61.605ZM164.966 62.2812C163.863 62.2812 162.921 62.0469 162.115 61.6038L161.152 63.3564C162.289 63.9816 163.569 64.2812 164.966 64.2812V62.2812ZM162.119 61.606C161.298 61.1495 160.664 60.5367 160.199 59.7598L158.482 60.7857C159.132 61.8724 160.026 62.7311 161.148 63.3543L162.119 61.606ZM160.202 59.7636C159.751 59.0015 159.518 58.1253 159.523 57.1071L157.523 57.0975C157.516 58.4429 157.829 59.6803 158.48 60.7818L160.202 59.7636ZM159.523 57.1023V45.5455H157.523V57.1023H159.523ZM158.523 46.5455H159.588V44.5455H158.523V46.5455ZM158.588 45.5455V57.0426H160.588V45.5455H158.588ZM158.588 57.0426C158.588 58.2046 158.852 59.2761 159.405 60.2288L161.135 59.2257C160.778 58.6103 160.588 57.892 160.588 57.0426H158.588ZM159.407 60.2335C159.959 61.1729 160.722 61.9169 161.68 62.4565L162.661 60.714C162.005 60.3445 161.501 59.8499 161.132 59.2211L159.407 60.2335ZM161.684 62.4591C162.66 63.002 163.764 63.2585 164.966 63.2585V61.2585C164.054 61.2585 163.294 61.0662 162.657 60.7114L161.684 62.4591ZM164.966 63.2585C166.168 63.2585 167.272 63.002 168.248 62.4591L167.275 60.7114C166.637 61.0662 165.877 61.2585 164.966 61.2585V63.2585ZM168.252 62.4565C169.211 61.9163 169.972 61.1708 170.519 60.2288L168.788 59.2257C168.425 59.8519 167.925 60.3451 167.271 60.714L168.252 62.4565ZM170.516 60.2335C171.075 59.28 171.344 58.2069 171.344 57.0426H169.344C169.344 57.8897 169.152 58.6064 168.791 59.2211L170.516 60.2335ZM171.344 57.0426V45.5455H169.344V57.0426H171.344ZM189.79 45.5455H190.79V44.5455H189.79V45.5455ZM189.79 63V64H190.79V63H189.79ZM188.751 63L187.938 63.5828L188.237 64H188.751V63ZM177.62 47.4801L178.433 46.8973L178.133 46.4801H177.62V47.4801ZM177.518 47.4801V46.4801H176.518V47.4801H177.518ZM177.518 63V64H178.518V63H177.518ZM176.452 63H175.452V64H176.452V63ZM176.452 45.5455V44.5455H175.452V45.5455H176.452ZM177.501 45.5455L178.314 44.9631L178.014 44.5455H177.501V45.5455ZM188.631 61.0824L187.818 61.6648L188.118 62.0824H188.631V61.0824ZM188.734 61.0824V62.0824H189.734V61.0824H188.734ZM188.734 45.5455V44.5455H187.734V45.5455H188.734ZM188.79 45.5455V63H190.79V45.5455H188.79ZM189.79 62H188.751V64H189.79V62ZM189.563 62.4172L178.433 46.8973L176.807 48.0629L187.938 63.5828L189.563 62.4172ZM177.62 46.4801H177.518V48.4801H177.62V46.4801ZM176.518 47.4801V63H178.518V47.4801H176.518ZM177.518 62H176.452V64H177.518V62ZM177.452 63V45.5455H175.452V63H177.452ZM176.452 46.5455H177.501V44.5455H176.452V46.5455ZM176.688 46.1278L187.818 61.6648L189.444 60.5L178.314 44.9631L176.688 46.1278ZM188.631 62.0824H188.734V60.0824H188.631V62.0824ZM189.734 61.0824V45.5455H187.734V61.0824H189.734ZM188.734 46.5455H189.79V44.5455H188.734V46.5455ZM195.893 45.5455H196.893V44.5455H195.893V45.5455ZM195.893 63V64H196.893V63H195.893ZM194.827 63H193.827V64H194.827V63ZM194.827 45.5455V44.5455H193.827V45.5455H194.827ZM194.893 45.5455V63H196.893V45.5455H194.893ZM195.893 62H194.827V64H195.893V62ZM195.827 63V45.5455H193.827V63H195.827ZM194.827 46.5455H195.893V44.5455H194.827V46.5455ZM200.271 45.5455L201.213 45.21L200.977 44.5455H200.271V45.5455ZM205.999 61.6278L205.057 61.9633L205.293 62.6278H205.999V61.6278ZM206.118 61.6278V62.6278H206.823L207.06 61.9633L206.118 61.6278ZM211.845 45.5455V44.5455H211.14L210.903 45.21L211.845 45.5455ZM212.97 45.5455L213.911 45.8849L214.394 44.5455H212.97V45.5455ZM206.672 63V64H207.374L207.613 63.3394L206.672 63ZM205.445 63L204.504 63.3394L204.742 64H205.445V63ZM199.146 45.5455V44.5455H197.722L198.206 45.8849L199.146 45.5455ZM199.329 45.8809L205.057 61.9633L206.941 61.2924L201.213 45.21L199.329 45.8809ZM205.999 62.6278H206.118V60.6278H205.999V62.6278ZM207.06 61.9633L212.787 45.8809L210.903 45.21L205.176 61.2924L207.06 61.9633ZM211.845 46.5455H212.97V44.5455H211.845V46.5455ZM212.03 45.206L205.731 62.6606L207.613 63.3394L213.911 45.8849L212.03 45.206ZM206.672 62H205.445V64H206.672V62ZM206.385 62.6606L200.087 45.206L198.206 45.8849L204.504 63.3394L206.385 62.6606ZM199.146 46.5455H200.271V44.5455H199.146V46.5455ZM216.226 63H215.226V64H216.226V63ZM216.226 45.5455V44.5455H215.226V45.5455H216.226ZM225.942 45.5455H226.942V44.5455H225.942V45.5455ZM225.942 46.5341V47.5341H226.942V46.5341H225.942ZM217.291 46.5341V45.5341H216.291V46.5341H217.291ZM217.291 53.7699H216.291V54.7699H217.291V53.7699ZM225.422 53.7699H226.422V52.7699H225.422V53.7699ZM225.422 54.7585V55.7585H226.422V54.7585H225.422ZM217.291 54.7585V53.7585H216.291V54.7585H217.291ZM217.291 62.0114H216.291V63.0114H217.291V62.0114ZM226.146 62.0114H227.146V61.0114H226.146V62.0114ZM226.146 63V64H227.146V63H226.146ZM217.226 63V45.5455H215.226V63H217.226ZM216.226 46.5455H225.942V44.5455H216.226V46.5455ZM224.942 45.5455V46.5341H226.942V45.5455H224.942ZM225.942 45.5341H217.291V47.5341H225.942V45.5341ZM216.291 46.5341V53.7699H218.291V46.5341H216.291ZM217.291 54.7699H225.422V52.7699H217.291V54.7699ZM224.422 53.7699V54.7585H226.422V53.7699H224.422ZM225.422 53.7585H217.291V55.7585H225.422V53.7585ZM216.291 54.7585V62.0114H218.291V54.7585H216.291ZM217.291 63.0114H226.146V61.0114H217.291V63.0114ZM225.146 62.0114V63H227.146V62.0114H225.146ZM226.146 62H216.226V64H226.146V62ZM230.359 63H229.359V64H230.359V63ZM230.359 45.5455V44.5455H229.359V45.5455H230.359ZM240.415 47.9915L239.541 48.4771L239.543 48.4799L240.415 47.9915ZM240.415 53.2926L241.287 53.7838L241.288 53.781L240.415 53.2926ZM238.583 55.0653L238.111 54.1839L238.108 54.1853L238.583 55.0653ZM230.93 55.7045H229.93V56.7045H230.93V55.7045ZM230.93 54.7074V53.7074H229.93V54.7074H230.93ZM238.021 54.2045L238.487 55.0893L238.487 55.0893L238.021 54.2045ZM239.487 52.7983L240.357 53.2909L240.359 53.2874L239.487 52.7983ZM239.487 48.4858L238.61 48.968L238.612 48.9714L239.487 48.4858ZM238.012 47.0455L237.54 47.9269L237.543 47.9287L238.012 47.0455ZM231.424 46.5341V45.5341H230.424V46.5341H231.424ZM231.424 63V64H232.424V63H231.424ZM237.526 55.0909L238.405 54.6136L238.121 54.0909H237.526V55.0909ZM241.822 63V64H243.503L242.7 62.5227L241.822 63ZM240.594 63L239.715 63.4751L239.998 64H240.594V63ZM236.325 55.0909V54.0909H234.648L235.445 55.566L236.325 55.0909ZM231.359 63V45.5455H229.359V63H231.359ZM230.359 46.5455H235.737V44.5455H230.359V46.5455ZM235.737 46.5455C236.708 46.5455 237.486 46.7353 238.106 47.072L239.06 45.3143C238.09 44.7874 236.969 44.5455 235.737 44.5455V46.5455ZM238.106 47.072C238.74 47.4162 239.211 47.8816 239.541 48.4771L241.29 47.5058C240.768 46.5672 240.017 45.8338 239.06 45.3143L238.106 47.072ZM239.543 48.4799C239.873 49.0698 240.055 49.7828 240.055 50.6506H242.055C242.055 49.4956 241.81 48.4359 241.288 47.5031L239.543 48.4799ZM240.055 50.6506C240.055 51.5049 239.874 52.2127 239.543 52.8042L241.288 53.781C241.809 52.8498 242.055 51.7963 242.055 50.6506H240.055ZM239.544 52.8014C239.215 53.3849 238.746 53.8436 238.111 54.1839L239.055 55.9468C240.011 55.4349 240.763 54.7116 241.287 53.7838L239.544 52.8014ZM238.108 54.1853C237.494 54.5167 236.719 54.7045 235.745 54.7045V56.7045C236.976 56.7045 238.093 56.4663 239.058 55.9454L238.108 54.1853ZM235.745 54.7045H230.93V56.7045H235.745V54.7045ZM231.93 55.7045V54.7074H229.93V55.7045H231.93ZM230.93 55.7074H235.719V53.7074H230.93V55.7074ZM235.719 55.7074C236.74 55.7074 237.675 55.5167 238.487 55.0893L237.555 53.3198C237.093 53.5628 236.494 53.7074 235.719 53.7074V55.7074ZM238.487 55.0893C239.286 54.6685 239.918 54.0667 240.357 53.2909L238.616 52.3057C238.374 52.7345 238.028 53.0702 237.555 53.3198L238.487 55.0893ZM240.359 53.2874C240.797 52.5049 240.998 51.6144 240.998 50.6506H238.998C238.998 51.3344 238.857 51.8757 238.614 52.3092L240.359 53.2874ZM240.998 50.6506C240.998 49.682 240.798 48.7872 240.361 48.0002L238.612 48.9714C238.857 49.4116 238.998 49.96 238.998 50.6506H240.998ZM240.363 48.0036C239.925 47.2088 239.29 46.5916 238.481 46.1622L237.543 47.9287C238.018 48.1811 238.366 48.5241 238.61 48.968L240.363 48.0036ZM238.484 46.164C237.671 45.7285 236.734 45.5341 235.711 45.5341V47.5341C236.483 47.5341 237.08 47.6806 237.54 47.9269L238.484 46.164ZM235.711 45.5341H231.424V47.5341H235.711V45.5341ZM230.424 46.5341V63H232.424V46.5341H230.424ZM231.424 62H230.359V64H231.424V62ZM236.648 55.5682L240.943 63.4773L242.7 62.5227L238.405 54.6136L236.648 55.5682ZM241.822 62H240.594V64H241.822V62ZM241.474 62.5249L237.205 54.6158L235.445 55.566L239.715 63.4751L241.474 62.5249ZM236.325 56.0909H237.526V54.0909H236.325V56.0909ZM254.721 49.9091L253.724 49.9926L253.801 50.9091H254.721V49.9091ZM253.391 47.2756L252.744 48.0379L252.747 48.0402L253.391 47.2756ZM248.065 46.7386L247.636 45.8351L247.636 45.8351L248.065 46.7386ZM246.513 48.017L245.692 47.4465L245.692 47.4465L246.513 48.017ZM246.207 51.0938L245.301 51.5182L245.305 51.5268L245.309 51.5353L246.207 51.0938ZM246.948 52.0568L246.282 52.8028L246.29 52.8094L246.948 52.0568ZM248.082 52.7898L248.515 51.8884L248.515 51.8884L248.082 52.7898ZM249.531 53.3438L249.242 54.3013L249.248 54.303L249.531 53.3438ZM251.44 53.9062L251.731 52.9495L251.722 52.947L251.44 53.9062ZM253.246 54.5966L252.818 55.5001L252.822 55.5018L253.246 54.5966ZM254.695 55.5341L254.031 56.2815L254.036 56.2864L254.042 56.2911L254.695 55.5341ZM255.658 56.7955L254.754 57.2213L254.758 57.2299L255.658 56.7955ZM255.292 60.9375L254.456 60.3888L254.453 60.3934L255.292 60.9375ZM253.272 62.6591L253.703 63.5616L253.705 63.5604L253.272 62.6591ZM247.255 62.7102L246.838 63.6191L246.84 63.6202L247.255 62.7102ZM245.286 61.125L244.47 61.703L244.472 61.7062L245.286 61.125ZM244.468 58.7727V57.7727H243.395L243.471 58.8431L244.468 58.7727ZM245.559 58.7727L246.556 58.6942L246.483 57.7727H245.559V58.7727ZM246.249 60.6477L245.454 61.2546L245.462 61.264L246.249 60.6477ZM247.877 61.858L247.49 62.7799L247.49 62.7799L247.877 61.858ZM252.675 61.8068L253.082 62.7206L253.088 62.7179L252.675 61.8068ZM254.354 60.4602L253.536 59.8851L253.536 59.8851L254.354 60.4602ZM253.238 55.7472L252.746 56.6176L252.749 56.6197L253.238 55.7472ZM251.141 54.8949L250.853 55.8524L250.855 55.8529L251.141 54.8949ZM249.104 54.2812L248.813 55.238L248.816 55.2387L249.104 54.2812ZM245.977 52.5852L245.269 53.2923L245.272 53.2951L245.977 52.5852ZM245.619 47.5227L246.442 48.0898L246.444 48.0867L245.619 47.5227ZM247.562 45.8778L247.127 44.9773L247.125 44.9785L247.562 45.8778ZM253.102 45.8864L252.649 46.7782L252.654 46.7808L253.102 45.8864ZM254.994 47.5312L254.162 48.086L254.164 48.0891L254.994 47.5312ZM255.769 49.9091V50.9091H256.828L256.768 49.8519L255.769 49.9091ZM255.717 49.8256C255.605 48.4894 255.045 47.3614 254.036 46.5109L252.747 48.0402C253.329 48.5307 253.654 49.1583 253.724 49.9926L255.717 49.8256ZM254.039 46.5132C253.032 45.6585 251.764 45.2699 250.323 45.2699V47.2699C251.394 47.2699 252.171 47.5517 252.744 48.0379L254.039 46.5132ZM250.323 45.2699C249.352 45.2699 248.449 45.4496 247.636 45.8351L248.493 47.6422C248.998 47.4026 249.601 47.2699 250.323 47.2699V45.2699ZM247.636 45.8351C246.837 46.214 246.177 46.748 245.692 47.4465L247.335 48.5876C247.599 48.2065 247.974 47.8883 248.493 47.6422L247.636 45.8351ZM245.692 47.4465C245.193 48.1646 244.951 48.9858 244.951 49.875H246.951C246.951 49.3665 247.084 48.949 247.335 48.5876L245.692 47.4465ZM244.951 49.875C244.951 50.4532 245.062 51.0068 245.301 51.5182L247.112 50.6693C247.011 50.4534 246.951 50.1945 246.951 49.875H244.951ZM245.309 51.5353C245.546 52.0164 245.875 52.439 246.282 52.8028L247.614 51.3109C247.385 51.1065 247.219 50.887 247.104 50.6522L245.309 51.5353ZM246.29 52.8094C246.685 53.1554 247.141 53.4474 247.649 53.6911L248.515 51.8884C248.147 51.7117 247.848 51.5151 247.607 51.3042L246.29 52.8094ZM247.649 53.6911C248.139 53.9266 248.671 54.1292 249.242 54.3013L249.819 52.3862C249.333 52.2401 248.9 52.0734 248.515 51.8884L247.649 53.6911ZM249.248 54.303L251.157 54.8655L251.722 52.947L249.813 52.3845L249.248 54.303ZM251.148 54.8629C251.76 55.0491 252.316 55.2622 252.818 55.5001L253.675 53.693C253.074 53.4083 252.426 53.1611 251.731 52.9496L251.148 54.8629ZM252.822 55.5018C253.302 55.7273 253.702 55.989 254.031 56.2815L255.36 54.7867C254.871 54.3519 254.305 53.9886 253.671 53.6914L252.822 55.5018ZM254.042 56.2911C254.354 56.56 254.588 56.8685 254.754 57.2213L256.563 56.3697C256.275 55.7565 255.867 55.2241 255.349 54.777L254.042 56.2911ZM254.758 57.2299C254.915 57.5555 255.008 57.9593 255.008 58.4659H257.008C257.008 57.7111 256.868 57.0013 256.559 56.361L254.758 57.2299ZM255.008 58.4659C255.008 59.2033 254.82 59.8342 254.456 60.3888L256.128 61.4862C256.719 60.5862 257.008 59.5694 257.008 58.4659H255.008ZM254.453 60.3934C254.093 60.9487 253.569 61.407 252.839 61.7578L253.705 63.5604C254.725 63.0702 255.548 62.3809 256.131 61.4816L254.453 60.3934ZM252.841 61.7566C252.134 62.0943 251.261 62.2812 250.195 62.2812V64.2812C251.493 64.2812 252.672 64.0534 253.703 63.5616L252.841 61.7566ZM250.195 62.2812C249.182 62.2812 248.349 62.1098 247.67 61.8003L246.84 63.6202C247.832 64.072 248.959 64.2812 250.195 64.2812V62.2812ZM247.672 61.8014C246.985 61.4861 246.472 61.0643 246.1 60.5438L244.472 61.7062C245.067 62.538 245.866 63.173 246.838 63.6191L247.672 61.8014ZM246.102 60.547C245.732 60.0242 245.516 59.4182 245.466 58.7024L243.471 58.8431C243.545 59.9 243.875 60.8622 244.47 61.703L246.102 60.547ZM244.468 59.7727H245.559V57.7727H244.468V59.7727ZM244.562 58.8512C244.633 59.747 244.924 60.5596 245.454 61.2545L247.044 60.0409C246.768 59.679 246.599 59.2417 246.556 58.6942L244.562 58.8512ZM245.462 61.264C245.987 61.9348 246.673 62.4368 247.49 62.7799L248.264 60.936C247.729 60.7109 247.33 60.4061 247.037 60.0314L245.462 61.264ZM247.49 62.7799C248.309 63.1241 249.217 63.2841 250.195 63.2841V61.2841C249.435 61.2841 248.797 61.16 248.264 60.936L247.49 62.7799ZM250.195 63.2841C251.246 63.2841 252.215 63.1057 253.082 62.7206L252.269 60.893C251.704 61.1443 251.02 61.2841 250.195 61.2841V63.2841ZM253.088 62.7179C253.946 62.3294 254.654 61.7725 255.172 61.0353L253.536 59.8851C253.248 60.2957 252.836 60.6365 252.263 60.8957L253.088 62.7179ZM255.172 61.0353C255.704 60.2785 255.96 59.4061 255.96 58.4574H253.96C253.96 59.0314 253.811 59.4942 253.536 59.8851L255.172 61.0353ZM255.96 58.4574C255.96 57.6814 255.774 56.9559 255.359 56.3285L253.691 57.4329C253.855 57.6804 253.96 58.0061 253.96 58.4574H255.96ZM255.359 56.3285C254.962 55.7301 254.401 55.2522 253.727 54.8747L252.749 56.6197C253.211 56.8785 253.508 57.1563 253.691 57.4329L255.359 56.3285ZM253.73 54.8768C253.085 54.5116 252.312 54.2014 251.428 53.9369L250.855 55.8529C251.641 56.0884 252.266 56.3464 252.746 56.6176L253.73 54.8768ZM251.43 53.9374L249.393 53.3238L248.816 55.2387L250.853 55.8524L251.43 53.9374ZM249.395 53.3245C248.128 52.9392 247.25 52.4398 246.681 51.8753L245.272 53.2951C246.147 54.1625 247.353 54.7938 248.813 55.238L249.395 53.3245ZM246.684 51.8781C246.166 51.3609 245.903 50.7283 245.903 49.9091H243.903C243.903 51.2263 244.355 52.3777 245.269 53.2923L246.684 51.8781ZM245.903 49.9091C245.903 49.1997 246.088 48.6048 246.442 48.0898L244.795 46.9556C244.195 47.827 243.903 48.8231 243.903 49.9091H245.903ZM246.444 48.0867C246.816 47.5423 247.325 47.1047 247.999 46.7772L247.125 44.9785C246.162 45.4464 245.376 46.1055 244.793 46.9588L246.444 48.0867ZM247.997 46.7784C248.668 46.4542 249.445 46.2812 250.349 46.2812V44.2812C249.184 44.2812 248.103 44.506 247.127 44.9773L247.997 46.7784ZM250.349 46.2812C251.257 46.2812 252.015 46.4568 252.649 46.7782L253.554 44.9945C252.597 44.5091 251.52 44.2812 250.349 44.2812V46.2812ZM252.654 46.7808C253.304 47.1054 253.798 47.5405 254.162 48.0859L255.826 46.9766C255.257 46.1243 254.49 45.4627 253.549 44.9919L252.654 46.7808ZM254.164 48.0891C254.523 48.6231 254.729 49.2403 254.771 49.9663L256.768 49.8519C256.707 48.7938 256.396 47.8258 255.824 46.9734L254.164 48.0891ZM255.769 48.9091H254.721V50.9091H255.769V48.9091ZM259.545 63V64H260.249L260.486 63.3364L259.545 63ZM258.42 63L257.479 62.6606L256.996 64H258.42V63ZM264.718 45.5455V44.5455H264.016L263.777 45.206L264.718 45.5455ZM265.945 45.5455L266.886 45.206L266.648 44.5455H265.945V45.5455ZM272.244 63V64H273.668L273.184 62.6606L272.244 63ZM271.119 63L270.177 63.3364L270.414 64H271.119V63ZM265.374 46.9176L266.316 46.5812L266.079 45.9176H265.374V46.9176ZM265.289 46.9176V45.9176H264.584L264.347 46.5812L265.289 46.9176ZM261.138 56.429V55.429H260.138V56.429H261.138ZM269.525 56.429H270.525V55.429H269.525V56.429ZM269.525 57.4176V58.4176H270.525V57.4176H269.525ZM261.138 57.4176H260.138V58.4176H261.138V57.4176ZM259.545 62H258.42V64H259.545V62ZM259.36 63.3394L265.659 45.8849L263.777 45.206L257.479 62.6606L259.36 63.3394ZM264.718 46.5455H265.945V44.5455H264.718V46.5455ZM265.005 45.8849L271.303 63.3394L273.184 62.6606L266.886 45.206L265.005 45.8849ZM272.244 62H271.119V64H272.244V62ZM272.06 62.6636L266.316 46.5812L264.433 47.254L270.177 63.3364L272.06 62.6636ZM265.374 45.9176H265.289V47.9176H265.374V45.9176ZM264.347 46.5812L258.603 62.6636L260.486 63.3364L266.231 47.254L264.347 46.5812ZM261.138 57.429H269.525V55.429H261.138V57.429ZM268.525 56.429V57.4176H270.525V56.429H268.525ZM269.525 56.4176H261.138V58.4176H269.525V56.4176ZM262.138 57.4176V56.429H260.138V57.4176H262.138ZM275.499 63H274.499V64H275.499V63ZM275.499 45.5455V44.5455H274.499V45.5455H275.499ZM276.565 45.5455H277.565V44.5455H276.565V45.5455ZM276.565 62.0114H275.565V63.0114H276.565V62.0114ZM285.087 62.0114H286.087V61.0114H285.087V62.0114ZM285.087 63V64H286.087V63H285.087ZM276.499 63V45.5455H274.499V63H276.499ZM275.499 46.5455H276.565V44.5455H275.499V46.5455ZM275.565 45.5455V62.0114H277.565V45.5455H275.565ZM276.565 63.0114H285.087V61.0114H276.565V63.0114ZM284.087 62.0114V63H286.087V62.0114H284.087ZM285.087 62H275.499V64H285.087V62Z" fill="black"/>
<defs>
<clipPath id="clip0_2_2">
<rect width="169" height="146" fill="white" transform="translate(10 4)"/>
</clipPath>
</defs>
</svg>
