<svg width="318" height="150" viewBox="0 0 318 150" fill="none" xmlns="http://www.w3.org/2000/svg">
<rect width="318" height="150" fill="white"/>
<g clip-path="url(#clip0_2_2)">
<path d="M31.4527 126.44C41.1092 120.59 61.0712 110.777 86.2683 110.777C111.465 110.777 131.427 120.59 141.084 126.44C150.485 132.135 158.045 138.849 161.607 144.328C162.905 142.263 161 105.528 155.727 90.9594C147.997 69.5499 135.032 51.2818 118.458 38.4435C101.883 25.6052 82.4356 18.7674 62.5507 18.7868C55.4778 18.7643 48.4713 20.3813 41.9368 23.5442C35.4022 26.7072 29.4694 31.3534 24.4818 37.2138C24.27 37.4613 24.0601 37.7106 23.8522 37.9615C12.6927 51.4328 7.482 70.1749 9.38445 88.792C10.7389 102.047 14.077 129.77 18.7936 135.648C22.7875 132.174 27.0218 129.094 31.4527 126.44V126.44Z" fill="#F2F2F2"/>
<path d="M103.786 36.0549C111.757 36.0549 118.218 28.5043 118.218 19.1903C118.218 9.8762 111.757 2.32565 103.786 2.32565C95.8157 2.32565 89.3544 9.8762 89.3544 19.1903C89.3544 28.5043 95.8157 36.0549 103.786 36.0549Z" fill="#6C63FF"/>
<path d="M87.3904 119.868C96.2508 119.868 103.433 118.117 103.433 115.957C103.433 113.797 96.2508 112.046 87.3904 112.046C78.5301 112.046 71.3473 113.797 71.3473 115.957C71.3473 118.117 78.5301 119.868 87.3904 119.868Z" fill="#F2F2F2"/>
<path d="M103.688 27.5924C88.9816 27.5909 77.4617 24.4753 77.462 20.4994C77.4622 18.1158 81.5443 15.9894 88.6617 14.6658C88.687 14.6608 88.7129 14.6617 88.738 14.6685C88.763 14.6752 88.7867 14.6877 88.8076 14.7051C88.8286 14.7226 88.8463 14.7446 88.86 14.7701C88.8736 14.7956 88.8828 14.8239 88.887 14.8535C88.8913 14.8832 88.8905 14.9135 88.8847 14.9427C88.879 14.972 88.8683 14.9997 88.8534 15.0241C88.8385 15.0486 88.8196 15.0694 88.7978 15.0853C88.776 15.1012 88.7517 15.112 88.7264 15.1169L88.7256 15.1171L88.7232 15.1175C82.0187 16.3645 77.8536 18.4267 77.8535 20.4995C77.8532 24.0948 89.684 27.1335 103.688 27.135C117.692 27.1364 129.524 24.1003 129.524 20.5049C129.524 18.4235 125.333 16.3553 118.586 15.1077C118.56 15.1032 118.536 15.0929 118.514 15.0774C118.492 15.0619 118.472 15.0414 118.457 15.0172C118.442 14.9929 118.431 14.9654 118.425 14.9362C118.419 14.907 118.417 14.8767 118.421 14.847C118.425 14.8172 118.434 14.7887 118.447 14.763C118.461 14.7372 118.478 14.7149 118.499 14.6971C118.52 14.6793 118.543 14.6665 118.568 14.6593C118.593 14.6522 118.619 14.6509 118.645 14.6555L118.645 14.6556L118.647 14.6559C125.808 15.9801 129.916 18.112 129.915 20.505C129.915 24.4808 118.395 27.5939 103.688 27.5924Z" fill="#3F3D56"/>
<path d="M104.736 24.868C92.0636 33.588 80.7842 37.735 79.0579 34.309C78.0229 32.255 80.617 28.002 86.1749 22.6407C86.1946 22.6214 86.2174 22.6068 86.2419 22.5977C86.2664 22.5887 86.2922 22.5854 86.3178 22.588C86.3434 22.5906 86.3683 22.5991 86.3911 22.6129C86.4139 22.6268 86.4341 22.6458 86.4507 22.6688C86.4672 22.6918 86.4797 22.7184 86.4874 22.747C86.4951 22.7757 86.498 22.8058 86.4958 22.8357C86.4935 22.8657 86.4863 22.8948 86.4744 22.9214C86.4625 22.9481 86.4463 22.9717 86.4266 22.991L86.426 22.9916L86.4241 22.9934C81.1885 28.0439 78.4953 32.2908 79.3952 34.0769C80.9563 37.175 92.4702 32.7774 104.538 24.4738C116.605 16.1703 125.481 6.53785 123.92 3.43969C123.017 1.64608 118.507 2.34959 112.151 5.27585C112.127 5.287 112.102 5.29255 112.076 5.29218C112.05 5.29182 112.025 5.28553 112.001 5.2737C111.978 5.26186 111.956 5.24471 111.938 5.22321C111.921 5.20171 111.906 5.17629 111.897 5.1484C111.887 5.12051 111.883 5.09069 111.883 5.06066C111.883 5.03062 111.889 5.00096 111.899 4.97335C111.909 4.94574 111.923 4.92073 111.942 4.89976C111.96 4.87878 111.982 4.86224 112.006 4.85108L112.006 4.85081L112.008 4.85021C118.754 1.74429 123.219 1.14557 124.258 3.20758C125.984 6.63362 117.409 16.148 104.736 24.868Z" fill="#3F3D56"/>
<path d="M87.8445 118.032C93.855 118.032 98.7275 117.088 98.7275 115.923C98.7275 114.759 93.855 113.815 87.8445 113.815C81.8339 113.815 76.9614 114.759 76.9614 115.923C76.9614 117.088 81.8339 118.032 87.8445 118.032Z" fill="#E6E6E6"/>
<path d="M51.5733 140.32C61.6857 140.32 69.8834 138.321 69.8834 135.856C69.8834 133.391 61.6857 131.392 51.5733 131.392C41.461 131.392 33.2633 133.391 33.2633 135.856C33.2633 138.321 41.461 140.32 51.5733 140.32Z" fill="#F2F2F2"/>
<path d="M126.143 148C141.221 148 153.445 145.02 153.445 141.344C153.445 137.669 141.221 134.689 126.143 134.689C111.065 134.689 98.8419 137.669 98.8419 141.344C98.8419 145.02 111.065 148 126.143 148Z" fill="#F2F2F2"/>
<path d="M51.5176 138.431C59.2691 138.431 65.553 137.214 65.553 135.712C65.553 134.211 59.2691 132.993 51.5176 132.993C43.7661 132.993 37.4822 134.211 37.4822 135.712C37.4822 137.214 43.7661 138.431 51.5176 138.431Z" fill="#E6E6E6"/>
<path d="M126.149 145.57C139.402 145.57 150.145 143.489 150.145 140.922C150.145 138.354 139.402 136.273 126.149 136.273C112.897 136.273 102.153 138.354 102.153 140.922C102.153 143.489 112.897 145.57 126.149 145.57Z" fill="#E6E6E6"/>
<path d="M20.3101 76.0802C21.0668 76.0802 21.6802 75.3634 21.6802 74.4792C21.6802 73.595 21.0668 72.8782 20.3101 72.8782C19.5535 72.8782 18.9401 73.595 18.9401 74.4792C18.9401 75.3634 19.5535 76.0802 20.3101 76.0802Z" fill="white"/>
<path d="M116.214 99.4092C116.97 99.4092 117.584 98.6924 117.584 97.8082C117.584 96.924 116.97 96.2072 116.214 96.2072C115.457 96.2072 114.844 96.924 114.844 97.8082C114.844 98.6924 115.457 99.4092 116.214 99.4092Z" fill="white"/>
<path d="M69.4231 46.5942C72.7493 47.7034 72.6215 50.0249 76.5669 50.0249C80.5123 50.0249 83.7107 50.6363 83.7107 46.5942C83.7107 42.5521 82.1404 35.0379 76.5669 35.3871C70.5682 35.7629 67.4064 45.9217 69.4231 46.5942Z" fill="#2F2E41"/>
<path d="M60.6693 80.8223C60.5262 80.5044 60.4445 80.1537 60.4299 79.7949C60.4153 79.4361 60.4682 79.0779 60.5849 78.7456C60.7016 78.4133 60.8792 78.1149 61.1052 77.8715C61.3312 77.6281 61.6002 77.4455 61.8931 77.3367L70.0775 57.1047L73.8212 60.1725L64.5991 79.0952C64.7229 79.6824 64.6581 80.3023 64.4169 80.8374C64.1758 81.3724 63.775 81.7856 63.2906 81.9984C62.8062 82.2113 62.2719 82.2092 61.7887 81.9924C61.3056 81.7756 60.9073 81.3593 60.6693 80.8222L60.6693 80.8223Z" fill="#FFB8B8"/>
<path d="M67.6824 59.7908C67.6434 59.6392 67.6329 59.4795 67.6515 59.3227C67.6702 59.1659 67.7176 59.0156 67.7905 58.8822L70.3351 54.2205C70.6179 53.4809 71.1402 52.9026 71.7873 52.6123C72.4345 52.322 73.1537 52.3435 73.7874 52.672C74.421 53.0005 74.9173 53.6092 75.1674 54.3647C75.4175 55.1202 75.4011 55.9607 75.1217 56.702L73.8399 62.0433C73.8033 62.1957 73.739 62.3371 73.6514 62.4579C73.5638 62.5787 73.455 62.676 73.3323 62.7432C73.2097 62.8104 73.0761 62.8459 72.9406 62.8474C72.8051 62.8488 72.671 62.8161 72.5473 62.7514L68.2006 60.4801C68.0769 60.4155 67.9665 60.3205 67.8771 60.2016C67.7877 60.0826 67.7213 59.9425 67.6824 59.7908V59.7908Z" fill="#6C63FF"/>
<path d="M90.3883 119.92L88.1335 120.88L83.894 111.174L87.2217 109.758L90.3883 119.92Z" fill="#FFB8B8"/>
<path d="M86.2884 120.812L90.6367 118.962L91.6336 122.161L84.5474 125.176C84.283 124.328 84.3179 123.391 84.6444 122.573C84.9709 121.754 85.5623 121.121 86.2884 120.812V120.812Z" fill="#2F2E41"/>
<path d="M84.233 113.781L75.6433 96.2148C75.5604 96.0449 75.5176 95.8522 75.5194 95.6565C75.5211 95.4609 75.5674 95.2693 75.6535 95.1014L79.5214 87.5682C79.6132 87.3895 79.7464 87.2449 79.9056 87.1511C80.0648 87.0573 80.2436 87.0182 80.421 87.0384C80.5985 87.0585 80.7675 87.1371 80.9083 87.2649C81.0491 87.3928 81.156 87.5647 81.2165 87.7607L88.5294 111.425C88.6099 111.683 88.605 111.967 88.5155 112.22C88.4261 112.474 88.2587 112.679 88.0463 112.795L85.4551 114.23C85.33 114.299 85.1934 114.335 85.055 114.335C84.8884 114.335 84.7247 114.284 84.5804 114.187C84.436 114.089 84.3162 113.949 84.233 113.781Z" fill="#2F2E41"/>
<path d="M76.262 49.8055C78.9169 49.8055 81.0692 47.2905 81.0692 44.188C81.0692 41.0855 78.9169 38.5705 76.262 38.5705C73.6071 38.5705 71.4549 41.0855 71.4549 44.188C71.4549 47.2905 73.6071 49.8055 76.262 49.8055Z" fill="#FFB8B8"/>
<path d="M69.4245 69.633C65.6388 59.8237 69.4553 54.3413 71.2718 52.4396C71.7951 51.8911 72.4733 51.588 73.1762 51.5885H79.9481C80.4344 51.5885 80.9126 51.7337 81.3373 52.0104C81.7621 52.2872 82.1192 52.6862 82.3749 53.1696C82.6306 53.6529 82.7762 54.2047 82.7981 54.7724C82.82 55.3401 82.7173 55.9049 82.4998 56.4132L77.9729 66.9933L69.4613 69.7286L69.4245 69.633Z" fill="#6C63FF"/>
<path d="M74.8991 122.573L72.4995 122.572L71.3581 111.757L74.8995 111.757L74.8991 122.573Z" fill="#FFB8B8"/>
<path d="M70.7856 121.771H75.4132V125.176H67.8719C67.8719 124.729 67.9473 124.286 68.0937 123.873C68.2401 123.46 68.4547 123.085 68.7253 122.769C68.9959 122.452 69.3171 122.202 69.6706 122.03C70.0241 121.859 70.403 121.771 70.7856 121.771Z" fill="#2F2E41"/>
<path d="M73.8823 118.444L70.0406 117.926C69.7922 117.892 69.5653 117.745 69.41 117.516C69.2546 117.287 69.1834 116.995 69.2121 116.705C69.2128 116.699 69.2134 116.692 69.2141 116.686L72.6428 86.5187C72.6548 86.4136 72.6499 86.3068 72.6285 86.2038L69.1823 69.5888C69.1497 69.4355 69.1461 69.2759 69.1715 69.1208C69.197 68.9657 69.251 68.819 69.3299 68.6908C69.8643 67.8298 71.6953 65.8235 77.142 65.7854H77.1478C77.3292 65.7855 77.5068 65.8464 77.6594 65.961C77.8119 66.0757 77.9331 66.2391 78.0084 66.4319L78.735 68.2996C78.7891 68.4383 78.8737 68.5577 78.9802 68.6456C79.9803 69.4728 84.8248 74.116 81.9802 84.31C79.1843 94.3294 75.6022 113.781 74.9124 117.579C74.8685 117.826 74.753 118.047 74.5855 118.206C74.418 118.365 74.2087 118.452 73.993 118.451C73.956 118.451 73.9191 118.449 73.8823 118.444V118.444Z" fill="#2F2E41"/>
<path d="M92.9923 45.5979C93.0016 45.724 93.0194 45.8491 93.0456 45.9719L86.5189 54.3675L84.2137 53.787L83.0093 57.7378L87.0046 59.229C87.3273 59.3494 87.6748 59.3443 87.9949 59.2143C88.3149 59.0844 88.5903 58.8366 88.7796 58.5082L94.9489 47.8053C95.3657 47.827 95.7783 47.6998 96.1318 47.4408C96.4852 47.1818 96.7628 46.8032 96.9276 46.3553C97.0925 45.9074 97.1367 45.4115 97.0544 44.9335C96.9722 44.4555 96.7673 44.0181 96.4672 43.6795C96.167 43.3409 95.7857 43.1171 95.3741 43.0379C94.9624 42.9586 94.5398 43.0278 94.1626 43.236C93.7854 43.4443 93.4714 43.7818 93.2623 44.2037C93.0532 44.6256 92.959 45.1119 92.9922 45.5979L92.9923 45.5979Z" fill="#FFB8B8"/>
<path d="M86.3213 54.7234L84.8081 59.6116C84.7651 59.7506 84.6969 59.8772 84.6082 59.9827C84.5195 60.0882 84.4124 60.1702 84.2941 60.2229C84.1759 60.2757 84.0493 60.2981 83.923 60.2885C83.7967 60.279 83.6737 60.2377 83.5622 60.1676L79.658 57.7095C79.0502 57.4482 78.5559 56.9158 78.2836 56.2292C78.0112 55.5426 77.9829 54.7578 78.205 54.0468C78.4271 53.3359 78.8814 52.757 79.4682 52.4369C80.0551 52.1168 80.7266 52.0818 81.3356 52.3395L85.6681 53.3646C85.7921 53.394 85.9093 53.4543 86.0116 53.5414C86.1139 53.6284 86.199 53.7403 86.2609 53.8692C86.3229 53.9982 86.3604 54.1412 86.3708 54.2886C86.3812 54.436 86.3643 54.5843 86.3213 54.7234V54.7234Z" fill="#6C63FF"/>
<path d="M82.145 43.8496H80.2437L79.4049 41.105L79.2371 43.8496H78.3284L77.8391 42.2486L77.7412 43.8496C75.3632 45.0221 73.1089 45.0545 70.9888 43.8496C70.9888 42.2724 71.525 40.7599 72.4793 39.6447C73.4336 38.5295 74.728 37.903 76.0776 37.903H77.0562C78.4058 37.903 79.7002 38.5295 80.6545 39.6447C81.6088 40.7599 82.145 42.2724 82.145 43.8496V43.8496Z" fill="#2F2E41"/>
<path d="M31.3684 102.611H30.6834V101.811C30.6834 101.538 30.5906 101.276 30.4254 101.083C30.2602 100.89 30.0362 100.782 29.8026 100.782C29.569 100.782 29.345 100.89 29.1798 101.083C29.0147 101.276 28.9219 101.538 28.9219 101.811V102.611H28.2368C28.0033 102.611 27.7792 102.72 27.6141 102.913C27.4489 103.106 27.3561 103.368 27.3561 103.64C27.3561 103.913 27.4489 104.175 27.6141 104.368C27.7792 104.561 28.0033 104.67 28.2368 104.67H28.9219V105.47C28.9219 105.743 29.0147 106.005 29.1798 106.198C29.345 106.391 29.569 106.499 29.8026 106.499C30.0362 106.499 30.2602 106.391 30.4254 106.198C30.5906 106.005 30.6834 105.743 30.6834 105.47V104.67H31.3684C31.602 104.67 31.826 104.561 31.9912 104.368C32.1563 104.175 32.2491 103.913 32.2491 103.64C32.2491 103.368 32.1563 103.106 31.9912 102.913C31.826 102.72 31.602 102.611 31.3684 102.611V102.611Z" fill="white"/>
<path d="M132.196 82.9783H131.84V82.562C131.84 82.4201 131.792 82.284 131.706 82.1836C131.62 82.0832 131.504 82.0268 131.382 82.0268C131.261 82.0268 131.144 82.0832 131.058 82.1836C130.972 82.284 130.924 82.4201 130.924 82.562V82.9783H130.568C130.446 82.9783 130.33 83.0347 130.244 83.135C130.158 83.2354 130.11 83.3715 130.11 83.5135C130.11 83.6554 130.158 83.7916 130.244 83.8919C130.33 83.9923 130.446 84.0487 130.568 84.0487H130.924V84.4649C130.924 84.6069 130.972 84.743 131.058 84.8434C131.144 84.9437 131.261 85.0001 131.382 85.0001C131.504 85.0001 131.62 84.9437 131.706 84.8434C131.792 84.743 131.84 84.6069 131.84 84.4649V84.0487H132.196C132.318 84.0489 132.434 83.9928 132.52 83.8926C132.606 83.7924 132.655 83.6564 132.655 83.5144C132.655 83.3725 132.607 83.2363 132.522 83.1357C132.436 83.0352 132.319 82.9785 132.198 82.9783H132.196Z" fill="#FF6584"/>
<path d="M28.2682 55.3036H27.9119V54.8874C27.9122 54.7454 27.8641 54.6092 27.7784 54.5087C27.6927 54.4081 27.5763 54.3515 27.4548 54.3512C27.3947 54.3511 27.3351 54.3648 27.2795 54.3916C27.2239 54.4183 27.1733 54.4576 27.1307 54.5072C27.0447 54.6074 26.9962 54.7435 26.996 54.8854V55.3037H26.6397C26.5796 55.3035 26.52 55.3173 26.4644 55.344C26.4088 55.3708 26.3583 55.4101 26.3157 55.4597C26.2731 55.5094 26.2392 55.5683 26.2161 55.6332C26.193 55.6981 26.1811 55.7676 26.181 55.8379C26.1808 55.9082 26.1926 55.9778 26.2155 56.0428C26.2384 56.1078 26.2721 56.1668 26.3145 56.2166C26.357 56.2664 26.4074 56.3059 26.4629 56.3329C26.5185 56.36 26.578 56.3739 26.6381 56.374H26.996V56.7903C26.9957 56.9323 27.0438 57.0685 27.1295 57.169C27.2152 57.2696 27.3316 57.3262 27.4531 57.3265C27.5746 57.3268 27.6911 57.2706 27.7772 57.1704C27.8632 57.0703 27.9117 56.9342 27.9119 56.7923V56.374H28.2682C28.3896 56.3744 28.5062 56.3184 28.5924 56.2184C28.6785 56.1183 28.7271 55.9823 28.7274 55.8404C28.7278 55.6984 28.6799 55.5621 28.5942 55.4615C28.5086 55.3608 28.3922 55.3041 28.2707 55.3037H28.2698L28.2682 55.3036Z" fill="#6C63FF"/>
<path d="M54.6906 55.3036H54.3343V54.8874C54.3346 54.7454 54.2865 54.6092 54.2008 54.5087C54.1151 54.4081 53.9987 54.3515 53.8772 54.3512C53.7557 54.3509 53.6392 54.4071 53.5531 54.5072C53.4671 54.6074 53.4186 54.7435 53.4184 54.8854V55.3037H53.0622C52.9407 55.3034 52.8241 55.3596 52.7381 55.4597C52.652 55.5599 52.6036 55.696 52.6034 55.8379C52.6032 55.9798 52.6512 56.1161 52.7369 56.2166C52.8227 56.3172 52.9391 56.3738 53.0606 56.374H53.4184V56.7903C53.4181 56.9323 53.4662 57.0685 53.5519 57.169C53.6376 57.2696 53.754 57.3262 53.8755 57.3265C53.997 57.3268 54.1136 57.2706 54.1996 57.1704C54.2857 57.0703 54.3341 56.9342 54.3343 56.7923V56.374H54.6906C54.812 56.3744 54.9287 56.3184 55.0148 56.2184C55.1009 56.1183 55.1495 55.9823 55.1498 55.8404C55.1502 55.6984 55.1023 55.5621 55.0166 55.4615C54.931 55.3608 54.8146 55.3041 54.6932 55.3037H54.6922L54.6906 55.3036Z" fill="white"/>
<path d="M145.701 110.195H145.345V109.779C145.345 109.637 145.297 109.501 145.211 109.401C145.125 109.3 145.008 109.244 144.887 109.244C144.765 109.244 144.649 109.3 144.563 109.401C144.477 109.501 144.429 109.637 144.429 109.779V110.195H144.073C143.951 110.195 143.835 110.252 143.749 110.352C143.663 110.453 143.615 110.589 143.615 110.731C143.615 110.873 143.663 111.009 143.749 111.109C143.835 111.209 143.951 111.266 144.073 111.266H144.429V111.682C144.429 111.824 144.477 111.96 144.563 112.061C144.649 112.161 144.765 112.217 144.887 112.217C145.008 112.217 145.125 112.161 145.211 112.061C145.297 111.96 145.345 111.824 145.345 111.682V111.266H145.701C145.823 111.266 145.939 111.209 146.025 111.109C146.111 111.009 146.159 110.873 146.159 110.731C146.159 110.589 146.111 110.453 146.025 110.352C145.939 110.252 145.823 110.195 145.701 110.195V110.195Z" fill="white"/>
<path d="M104.6 65.5959H104.243V65.1796C104.243 65.0376 104.195 64.9015 104.109 64.8012C104.023 64.7008 103.907 64.6444 103.785 64.6444C103.664 64.6444 103.547 64.7008 103.462 64.8012C103.376 64.9015 103.327 65.0376 103.327 65.1796V65.5959H102.971C102.85 65.5959 102.733 65.6522 102.647 65.7526C102.561 65.853 102.513 65.9891 102.513 66.131C102.513 66.273 102.561 66.4091 102.647 66.5095C102.733 66.6099 102.85 66.6662 102.971 66.6662H103.327V67.0825C103.327 67.2245 103.376 67.3606 103.462 67.4609C103.547 67.5613 103.664 67.6177 103.785 67.6177C103.907 67.6177 104.023 67.5613 104.109 67.4609C104.195 67.3606 104.243 67.2245 104.243 67.0825V66.6662H104.6C104.66 66.6664 104.719 66.6526 104.775 66.6259C104.831 66.5991 104.881 66.5598 104.924 66.5102C104.966 66.4605 105 66.4016 105.023 66.3367C105.046 66.2718 105.058 66.2023 105.058 66.132C105.058 66.0617 105.047 65.9921 105.024 65.9271C105.001 65.8621 104.967 65.8031 104.925 65.7533C104.882 65.7035 104.832 65.664 104.776 65.637C104.721 65.6099 104.661 65.596 104.601 65.5959H104.6Z" fill="white"/>
<path d="M41.7729 77.0317H41.4167V76.6154C41.417 76.4735 41.3689 76.3372 41.2832 76.2367C41.1975 76.1361 41.0811 76.0795 40.9596 76.0792C40.8381 76.0789 40.7215 76.1351 40.6355 76.2353C40.5494 76.3354 40.501 76.4715 40.5008 76.6134V77.0317H40.1445C40.0231 77.0314 39.9065 77.0876 39.8205 77.1878C39.7344 77.288 39.686 77.424 39.6857 77.5659C39.6855 77.7079 39.7336 77.8441 39.8193 77.9446C39.9051 78.0452 40.0215 78.1018 40.1429 78.1021H40.5008V78.5183C40.5005 78.6603 40.5486 78.7965 40.6343 78.897C40.72 78.9976 40.8364 79.0542 40.9579 79.0545C41.0794 79.0548 41.1959 78.9986 41.282 78.8985C41.368 78.7983 41.4165 78.6623 41.4167 78.5203V78.1021H41.7729C41.8944 78.1023 42.011 78.0462 42.097 77.946C42.1831 77.8458 42.2315 77.7097 42.2317 77.5678C42.2319 77.4259 42.1839 77.2896 42.0982 77.1891C42.0124 77.0885 41.896 77.0319 41.7746 77.0317L41.7729 77.0317Z" fill="white"/>
<path d="M42.9473 39.0648H42.5911V38.6485C42.5913 38.5066 42.5432 38.3704 42.4575 38.2698C42.3718 38.1693 42.2554 38.1126 42.1339 38.1124C42.0124 38.1121 41.8959 38.1682 41.8098 38.2684C41.7238 38.3686 41.6753 38.5046 41.6751 38.6465V39.0648H41.3189C41.1974 39.0646 41.0808 39.1207 40.9948 39.2209C40.9087 39.3211 40.8603 39.4571 40.8601 39.5991C40.8599 39.741 40.9079 39.8772 40.9936 39.9778C41.0794 40.0783 41.1958 40.1349 41.3173 40.1352H41.6751V40.5515C41.6749 40.6934 41.7229 40.8296 41.8086 40.9302C41.8943 41.0307 42.0107 41.0874 42.1322 41.0876C42.2537 41.0879 42.3703 41.0318 42.4563 40.9316C42.5424 40.8314 42.5908 40.6954 42.5911 40.5535V40.1352H42.9473C43.0687 40.1354 43.1853 40.0793 43.2713 39.9791C43.3574 39.8789 43.4058 39.7429 43.4061 39.6009C43.4063 39.459 43.3582 39.3228 43.2725 39.2222C43.1867 39.1217 43.0703 39.0651 42.9489 39.0648V39.0648L42.9473 39.0648Z" fill="white"/>
<path d="M103.786 24.2996C89.6083 15.9308 77.7193 18.6502 77.5595 17.2067C77.5596 14.823 81.6418 12.6967 88.7591 11.373C88.7845 11.368 88.8104 11.3689 88.8355 11.3756C88.8606 11.3823 88.8843 11.3948 88.9052 11.4122C88.9262 11.4297 88.944 11.4517 88.9576 11.4772C88.9713 11.5027 88.9805 11.5311 88.9847 11.5607C88.989 11.5904 88.9882 11.6207 88.9824 11.65C88.9766 11.6793 88.966 11.707 88.951 11.7314C88.9361 11.7559 88.9171 11.7767 88.8953 11.7926C88.8735 11.8085 88.8492 11.8192 88.8238 11.8242L88.8231 11.8243L88.8206 11.8248C82.1161 13.0717 77.9511 15.134 77.9509 17.2067C77.9506 20.8021 89.7815 23.8407 103.786 23.8422C117.79 23.8437 129.621 20.8075 129.621 17.2121C129.622 15.1307 125.43 13.0625 118.683 11.8149C118.658 11.8104 118.633 11.8001 118.611 11.7845C118.589 11.7689 118.57 11.7485 118.555 11.7243C118.54 11.7001 118.529 11.6726 118.523 11.6434C118.516 11.6142 118.515 11.5839 118.519 11.5543C118.523 11.5246 118.532 11.4961 118.545 11.4704C118.558 11.4447 118.576 11.4223 118.597 11.4045C118.617 11.3867 118.641 11.3739 118.666 11.3667C118.691 11.3595 118.717 11.3582 118.742 11.3627L118.743 11.3629L118.744 11.3631C125.906 12.6874 130.013 14.8193 130.013 17.2122C130.013 21.188 116.912 32.0483 103.786 24.2996Z" fill="#3F3D56"/>
<rect x="10" y="45" width="13.1897" height="75" fill="#C4C4C4"/>
</g>
<g filter="url(#filter0_d_2_2)">
<path d="M161.159 83H159.045C158.92 82.392 158.702 81.858 158.389 81.3977C158.082 80.9375 157.707 80.5511 157.264 80.2386C156.827 79.9205 156.341 79.6818 155.807 79.5227C155.273 79.3636 154.716 79.2841 154.136 79.2841C153.08 79.2841 152.122 79.5511 151.264 80.0852C150.412 80.6193 149.733 81.4062 149.227 82.446C148.727 83.4858 148.477 84.7614 148.477 86.2727C148.477 87.7841 148.727 89.0597 149.227 90.0994C149.733 91.1392 150.412 91.9261 151.264 92.4602C152.122 92.9943 153.08 93.2614 154.136 93.2614C154.716 93.2614 155.273 93.1818 155.807 93.0227C156.341 92.8636 156.827 92.6278 157.264 92.3153C157.707 91.9972 158.082 91.608 158.389 91.1477C158.702 90.6818 158.92 90.1477 159.045 89.5455H161.159C161 90.4375 160.71 91.2358 160.29 91.9403C159.869 92.6449 159.347 93.2443 158.722 93.7386C158.097 94.2273 157.395 94.5994 156.616 94.8551C155.844 95.1108 155.017 95.2386 154.136 95.2386C152.648 95.2386 151.324 94.875 150.165 94.1477C149.006 93.4205 148.094 92.3864 147.429 91.0455C146.764 89.7045 146.432 88.1136 146.432 86.2727C146.432 84.4318 146.764 82.8409 147.429 81.5C148.094 80.1591 149.006 79.125 150.165 78.3977C151.324 77.6705 152.648 77.3068 154.136 77.3068C155.017 77.3068 155.844 77.4347 156.616 77.6903C157.395 77.946 158.097 78.321 158.722 78.8153C159.347 79.304 159.869 79.9006 160.29 80.6051C160.71 81.304 161 82.1023 161.159 83ZM179.302 86.2727C179.302 88.1136 178.969 89.7045 178.305 91.0455C177.64 92.3864 176.728 93.4205 175.569 94.1477C174.41 94.875 173.086 95.2386 171.597 95.2386C170.109 95.2386 168.785 94.875 167.626 94.1477C166.467 93.4205 165.555 92.3864 164.89 91.0455C164.225 89.7045 163.893 88.1136 163.893 86.2727C163.893 84.4318 164.225 82.8409 164.89 81.5C165.555 80.1591 166.467 79.125 167.626 78.3977C168.785 77.6705 170.109 77.3068 171.597 77.3068C173.086 77.3068 174.41 77.6705 175.569 78.3977C176.728 79.125 177.64 80.1591 178.305 81.5C178.969 82.8409 179.302 84.4318 179.302 86.2727ZM177.256 86.2727C177.256 84.7614 177.004 83.4858 176.498 82.446C175.998 81.4062 175.319 80.6193 174.461 80.0852C173.609 79.5511 172.654 79.2841 171.597 79.2841C170.54 79.2841 169.583 79.5511 168.725 80.0852C167.873 80.6193 167.194 81.4062 166.688 82.446C166.188 83.4858 165.938 84.7614 165.938 86.2727C165.938 87.7841 166.188 89.0597 166.688 90.0994C167.194 91.1392 167.873 91.9261 168.725 92.4602C169.583 92.9943 170.54 93.2614 171.597 93.2614C172.654 93.2614 173.609 92.9943 174.461 92.4602C175.319 91.9261 175.998 91.1392 176.498 90.0994C177.004 89.0597 177.256 87.7841 177.256 86.2727ZM182.856 77.5455H185.379L191.31 92.0341H191.515L197.447 77.5455H199.969V95H197.992V81.7386H197.822L192.367 95H190.458L185.004 81.7386H184.833V95H182.856V77.5455ZM204.207 95V77.5455H210.105C211.474 77.5455 212.594 77.7926 213.463 78.2869C214.338 78.7756 214.986 79.4375 215.406 80.2727C215.827 81.108 216.037 82.0398 216.037 83.0682C216.037 84.0966 215.827 85.0312 215.406 85.8722C214.991 86.7131 214.349 87.3835 213.48 87.8835C212.611 88.3778 211.497 88.625 210.139 88.625H205.912V86.75H210.071C211.009 86.75 211.761 86.5881 212.33 86.2642C212.898 85.9403 213.31 85.5028 213.565 84.9517C213.827 84.3949 213.957 83.767 213.957 83.0682C213.957 82.3693 213.827 81.7443 213.565 81.1932C213.31 80.642 212.895 80.2102 212.321 79.8977C211.747 79.5795 210.986 79.4205 210.037 79.4205H206.321V95H204.207ZM219.442 95V77.5455H221.555V93.125H229.669V95H219.442ZM235.055 77.5455V95H232.942V77.5455H235.055ZM240.009 95H237.793L244.202 77.5455H246.384L252.793 95H250.577L245.362 80.3068H245.225L240.009 95ZM240.827 88.1818H249.759V90.0568H240.827V88.1818ZM269.353 77.5455V95H267.308L257.796 81.2955H257.626V95H255.512V77.5455H257.558L267.103 91.2841H267.273V77.5455H269.353ZM287.628 83H285.514C285.389 82.392 285.17 81.858 284.858 81.3977C284.551 80.9375 284.176 80.5511 283.733 80.2386C283.295 79.9205 282.81 79.6818 282.276 79.5227C281.741 79.3636 281.185 79.2841 280.605 79.2841C279.548 79.2841 278.591 79.5511 277.733 80.0852C276.881 80.6193 276.202 81.4062 275.696 82.446C275.196 83.4858 274.946 84.7614 274.946 86.2727C274.946 87.7841 275.196 89.0597 275.696 90.0994C276.202 91.1392 276.881 91.9261 277.733 92.4602C278.591 92.9943 279.548 93.2614 280.605 93.2614C281.185 93.2614 281.741 93.1818 282.276 93.0227C282.81 92.8636 283.295 92.6278 283.733 92.3153C284.176 91.9972 284.551 91.608 284.858 91.1477C285.17 90.6818 285.389 90.1477 285.514 89.5455H287.628C287.469 90.4375 287.179 91.2358 286.759 91.9403C286.338 92.6449 285.815 93.2443 285.19 93.7386C284.565 94.2273 283.864 94.5994 283.085 94.8551C282.313 95.1108 281.486 95.2386 280.605 95.2386C279.116 95.2386 277.793 94.875 276.634 94.1477C275.474 93.4205 274.563 92.3864 273.898 91.0455C273.233 89.7045 272.901 88.1136 272.901 86.2727C272.901 84.4318 273.233 82.8409 273.898 81.5C274.563 80.1591 275.474 79.125 276.634 78.3977C277.793 77.6705 279.116 77.3068 280.605 77.3068C281.486 77.3068 282.313 77.4347 283.085 77.6903C283.864 77.946 284.565 78.321 285.19 78.8153C285.815 79.304 286.338 79.9006 286.759 80.6051C287.179 81.304 287.469 82.1023 287.628 83ZM291.043 95V77.5455H301.577V79.4205H293.157V85.3182H301.032V87.1932H293.157V93.125H301.714V95H291.043Z" fill="black"/>
<path d="M161.159 83V84H162.352L162.144 82.8255L161.159 83ZM159.045 83L158.066 83.2014L158.23 84H159.045V83ZM158.389 81.3977L157.557 81.9524L157.562 81.9595L158.389 81.3977ZM157.264 80.2386L156.676 81.0474L156.682 81.0517L156.688 81.0559L157.264 80.2386ZM155.807 79.5227L155.521 80.4811L155.521 80.4811L155.807 79.5227ZM151.264 80.0852L150.736 79.2363L150.733 79.2379L151.264 80.0852ZM149.227 82.446L148.328 82.0087L148.326 82.0127L149.227 82.446ZM149.227 90.0994L148.326 90.5328L148.328 90.5368L149.227 90.0994ZM151.264 92.4602L150.733 93.3076L150.736 93.3092L151.264 92.4602ZM155.807 93.0227L155.521 92.0643L155.521 92.0643L155.807 93.0227ZM157.264 92.3153L157.845 93.1291L157.847 93.1277L157.264 92.3153ZM158.389 91.1477L157.559 90.5907L157.557 90.593L158.389 91.1477ZM159.045 89.5455V88.5455H158.232L158.066 89.3422L159.045 89.5455ZM161.159 89.5455L162.144 89.721L162.353 88.5455H161.159V89.5455ZM160.29 91.9403L159.431 91.4279L159.431 91.4279L160.29 91.9403ZM158.722 93.7386L159.338 94.5265L159.342 94.523L158.722 93.7386ZM156.616 94.8551L156.304 93.9051L156.302 93.9057L156.616 94.8551ZM150.165 94.1477L149.633 94.9948L149.633 94.9948L150.165 94.1477ZM147.429 91.0455L148.325 90.6013L148.325 90.6013L147.429 91.0455ZM156.616 77.6903L156.302 78.6397L156.304 78.6404L156.616 77.6903ZM158.722 78.8153L158.101 79.5997L158.106 79.6031L158.722 78.8153ZM160.29 80.6051L159.431 81.1176L159.433 81.1206L160.29 80.6051ZM161.159 82H159.045V84H161.159V82ZM160.025 82.7986C159.877 82.0766 159.611 81.4171 159.217 80.836L157.562 81.9595C157.792 82.2988 157.964 82.7075 158.066 83.2014L160.025 82.7986ZM159.221 80.843C158.847 80.2824 158.386 79.8063 157.84 79.4214L156.688 81.0559C157.028 81.2959 157.317 81.5926 157.557 81.9524L159.221 80.843ZM157.852 79.4299C157.32 79.043 156.732 78.7548 156.092 78.5643L155.521 80.4811C155.95 80.6088 156.333 80.7979 156.676 81.0474L157.852 79.4299ZM156.092 78.5643C155.462 78.3766 154.809 78.2841 154.136 78.2841V80.2841C154.623 80.2841 155.084 80.3507 155.521 80.4811L156.092 78.5643ZM154.136 78.2841C152.902 78.2841 151.76 78.5988 150.736 79.2363L151.793 80.9342C152.485 80.5034 153.257 80.2841 154.136 80.2841V78.2841ZM150.733 79.2379C149.7 79.8856 148.903 80.8262 148.328 82.0087L150.127 82.8834C150.563 81.9863 151.124 81.353 151.795 80.9326L150.733 79.2379ZM148.326 82.0127C147.744 83.2228 147.477 84.6559 147.477 86.2727H149.477C149.477 84.8668 149.71 83.7488 150.128 82.8794L148.326 82.0127ZM147.477 86.2727C147.477 87.8895 147.744 89.3227 148.326 90.5328L150.128 89.6661C149.71 88.7967 149.477 87.6787 149.477 86.2727H147.477ZM148.328 90.5368C148.903 91.7193 149.7 92.6598 150.733 93.3076L151.795 91.6129C151.124 91.1924 150.563 90.5591 150.127 89.6621L148.328 90.5368ZM150.736 93.3092C151.76 93.9466 152.902 94.2614 154.136 94.2614V92.2614C153.257 92.2614 152.485 92.042 151.793 91.6113L150.736 93.3092ZM154.136 94.2614C154.809 94.2614 155.462 94.1689 156.092 93.9811L155.521 92.0643C155.084 92.1947 154.623 92.2614 154.136 92.2614V94.2614ZM156.092 93.9811C156.728 93.7916 157.315 93.5081 157.845 93.1291L156.683 91.5016C156.339 91.7475 155.953 91.9356 155.521 92.0643L156.092 93.9811ZM157.847 93.1277C158.39 92.7383 158.849 92.2614 159.221 91.7024L157.557 90.593C157.316 90.9545 157.025 91.256 156.681 91.503L157.847 93.1277ZM159.22 91.7048C159.611 91.1217 159.876 90.4651 160.025 89.7487L158.066 89.3422C157.965 89.8303 157.793 90.2419 157.559 90.5907L159.22 91.7048ZM159.045 90.5455H161.159V88.5455H159.045V90.5455ZM160.175 89.3699C160.035 90.1554 159.783 90.8374 159.431 91.4279L161.148 92.4528C161.637 91.6342 161.965 90.7196 162.144 89.721L160.175 89.3699ZM159.431 91.4279C159.071 92.0312 158.628 92.5376 158.101 92.9543L159.342 94.523C160.065 93.951 160.668 93.2586 161.148 92.4528L159.431 91.4279ZM158.106 92.9508C157.575 93.3659 156.977 93.6843 156.304 93.9051L156.929 95.8052C157.813 95.5146 158.618 95.0887 159.338 94.5264L158.106 92.9508ZM156.302 93.9057C155.639 94.1252 154.919 94.2386 154.136 94.2386V96.2386C155.115 96.2386 156.049 96.0963 156.931 95.8045L156.302 93.9057ZM154.136 94.2386C152.819 94.2386 151.682 93.9193 150.696 93.3007L149.633 94.9948C150.966 95.8307 152.477 96.2386 154.136 96.2386V94.2386ZM150.696 93.3007C149.708 92.6806 148.916 91.7929 148.325 90.6013L146.533 91.4896C147.272 92.9799 148.303 94.1603 149.633 94.9948L150.696 93.3007ZM148.325 90.6013C147.743 89.4265 147.432 87.9943 147.432 86.2727H145.432C145.432 88.2329 145.786 89.9825 146.533 91.4896L148.325 90.6013ZM147.432 86.2727C147.432 84.5511 147.743 83.1189 148.325 81.9442L146.533 81.0558C145.786 82.5629 145.432 84.3125 145.432 86.2727H147.432ZM148.325 81.9442C148.916 80.7526 149.708 79.8649 150.696 79.2448L149.633 77.5507C148.303 78.3851 147.272 79.5656 146.533 81.0558L148.325 81.9442ZM150.696 79.2448C151.682 78.6262 152.819 78.3068 154.136 78.3068V76.3068C152.477 76.3068 150.966 76.7147 149.633 77.5507L150.696 79.2448ZM154.136 78.3068C154.919 78.3068 155.639 78.4202 156.302 78.6397L156.931 76.741C156.049 76.4491 155.115 76.3068 154.136 76.3068V78.3068ZM156.304 78.6404C156.974 78.8604 157.571 79.1804 158.101 79.5997L159.342 78.031C158.622 77.4617 157.815 77.0316 156.929 76.7403L156.304 78.6404ZM158.106 79.6031C158.63 80.0132 159.072 80.5153 159.431 81.1176L161.148 80.0927C160.667 79.2858 160.063 78.5948 159.338 78.0275L158.106 79.6031ZM159.433 81.1206C159.783 81.703 160.034 82.3832 160.174 83.1745L162.144 82.8255C161.966 81.8214 161.637 80.905 161.147 80.0896L159.433 81.1206ZM178.305 91.0455L177.409 90.6013L177.409 90.6013L178.305 91.0455ZM175.569 94.1477L176.1 94.9948L176.1 94.9948L175.569 94.1477ZM167.626 94.1477L167.094 94.9948L167.094 94.9948L167.626 94.1477ZM164.89 91.0455L165.786 90.6013L165.786 90.6013L164.89 91.0455ZM175.569 78.3977L176.1 77.5507L176.1 77.5507L175.569 78.3977ZM178.305 81.5L177.409 81.9442L177.409 81.9442L178.305 81.5ZM176.498 82.446L175.597 82.8794L175.599 82.8834L176.498 82.446ZM174.461 80.0852L173.93 80.9326L173.932 80.9342L174.461 80.0852ZM168.725 80.0852L168.197 79.2363L168.194 79.2379L168.725 80.0852ZM166.688 82.446L165.789 82.0087L165.787 82.0127L166.688 82.446ZM166.688 90.0994L165.787 90.5328L165.789 90.5368L166.688 90.0994ZM168.725 92.4602L168.194 93.3076L168.197 93.3092L168.725 92.4602ZM174.461 92.4602L173.932 91.6113L173.93 91.6129L174.461 92.4602ZM176.498 90.0994L175.599 89.6621L175.597 89.6661L176.498 90.0994ZM178.302 86.2727C178.302 87.9943 177.991 89.4265 177.409 90.6013L179.201 91.4896C179.948 89.9825 180.302 88.2329 180.302 86.2727H178.302ZM177.409 90.6013C176.818 91.7929 176.026 92.6806 175.037 93.3007L176.1 94.9948C177.43 94.1603 178.462 92.9799 179.201 91.4896L177.409 90.6013ZM175.037 93.3007C174.052 93.9193 172.915 94.2386 171.597 94.2386V96.2386C173.257 96.2386 174.768 95.8307 176.1 94.9948L175.037 93.3007ZM171.597 94.2386C170.28 94.2386 169.143 93.9193 168.157 93.3007L167.094 94.9948C168.427 95.8307 169.938 96.2386 171.597 96.2386V94.2386ZM168.157 93.3007C167.169 92.6806 166.377 91.7929 165.786 90.6013L163.994 91.4896C164.733 92.9799 165.764 94.1603 167.094 94.9948L168.157 93.3007ZM165.786 90.6013C165.203 89.4265 164.893 87.9943 164.893 86.2727H162.893C162.893 88.2329 163.247 89.9825 163.994 91.4896L165.786 90.6013ZM164.893 86.2727C164.893 84.5511 165.203 83.1189 165.786 81.9442L163.994 81.0558C163.247 82.5629 162.893 84.3125 162.893 86.2727H164.893ZM165.786 81.9442C166.377 80.7526 167.169 79.8649 168.157 79.2448L167.094 77.5507C165.764 78.3851 164.733 79.5656 163.994 81.0558L165.786 81.9442ZM168.157 79.2448C169.143 78.6262 170.28 78.3068 171.597 78.3068V76.3068C169.938 76.3068 168.427 76.7147 167.094 77.5507L168.157 79.2448ZM171.597 78.3068C172.915 78.3068 174.052 78.6262 175.037 79.2448L176.1 77.5507C174.768 76.7147 173.257 76.3068 171.597 76.3068V78.3068ZM175.037 79.2448C176.026 79.8649 176.818 80.7526 177.409 81.9442L179.201 81.0558C178.462 79.5656 177.43 78.3851 176.1 77.5507L175.037 79.2448ZM177.409 81.9442C177.991 83.1189 178.302 84.5511 178.302 86.2727H180.302C180.302 84.3125 179.948 82.5629 179.201 81.0558L177.409 81.9442ZM178.256 86.2727C178.256 84.6545 177.986 83.2199 177.397 82.0087L175.599 82.8834C176.021 83.7517 176.256 84.8682 176.256 86.2727H178.256ZM177.399 82.0127C176.829 80.8266 176.03 79.8843 174.989 79.2363L173.932 80.9342C174.607 81.3543 175.167 81.9859 175.597 82.8794L177.399 82.0127ZM174.992 79.2379C173.972 78.5989 172.832 78.2841 171.597 78.2841V80.2841C172.476 80.2841 173.245 80.5034 173.93 80.9326L174.992 79.2379ZM171.597 78.2841C170.363 78.2841 169.221 78.5988 168.197 79.2363L169.254 80.9342C169.946 80.5034 170.718 80.2841 171.597 80.2841V78.2841ZM168.194 79.2379C167.16 79.8856 166.364 80.8262 165.789 82.0087L167.587 82.8834C168.024 81.9863 168.585 81.353 169.256 80.9326L168.194 79.2379ZM165.787 82.0127C165.205 83.2228 164.938 84.6559 164.938 86.2727H166.938C166.938 84.8668 167.171 83.7488 167.589 82.8794L165.787 82.0127ZM164.938 86.2727C164.938 87.8895 165.205 89.3227 165.787 90.5328L167.589 89.6661C167.171 88.7967 166.938 87.6787 166.938 86.2727H164.938ZM165.789 90.5368C166.364 91.7193 167.16 92.6598 168.194 93.3076L169.256 91.6129C168.585 91.1924 168.024 90.5591 167.587 89.6621L165.789 90.5368ZM168.197 93.3092C169.221 93.9466 170.363 94.2614 171.597 94.2614V92.2614C170.718 92.2614 169.946 92.042 169.254 91.6113L168.197 93.3092ZM171.597 94.2614C172.832 94.2614 173.972 93.9466 174.992 93.3076L173.93 91.6129C173.245 92.042 172.476 92.2614 171.597 92.2614V94.2614ZM174.989 93.3092C176.03 92.6611 176.829 91.7188 177.399 90.5328L175.597 89.6661C175.167 90.5596 174.607 91.1912 173.932 91.6113L174.989 93.3092ZM177.397 90.5368C177.986 89.3255 178.256 87.8909 178.256 86.2727H176.256C176.256 87.6773 176.021 88.7938 175.599 89.6621L177.397 90.5368ZM182.856 77.5455V76.5455H181.856V77.5455H182.856ZM185.379 77.5455L186.304 77.1666L186.05 76.5455H185.379V77.5455ZM191.31 92.0341L190.385 92.413L190.639 93.0341H191.31V92.0341ZM191.515 92.0341V93.0341H192.186L192.44 92.413L191.515 92.0341ZM197.447 77.5455V76.5455H196.776L196.521 77.1666L197.447 77.5455ZM199.969 77.5455H200.969V76.5455H199.969V77.5455ZM199.969 95V96H200.969V95H199.969ZM197.992 95H196.992V96H197.992V95ZM197.992 81.7386H198.992V80.7386H197.992V81.7386ZM197.822 81.7386V80.7386H197.152L196.897 81.3582L197.822 81.7386ZM192.367 95V96H193.037L193.292 95.3804L192.367 95ZM190.458 95L189.533 95.3804L189.788 96H190.458V95ZM185.004 81.7386L185.928 81.3582L185.674 80.7386H185.004V81.7386ZM184.833 81.7386V80.7386H183.833V81.7386H184.833ZM184.833 95V96H185.833V95H184.833ZM182.856 95H181.856V96H182.856V95ZM182.856 78.5455H185.379V76.5455H182.856V78.5455ZM184.453 77.9243L190.385 92.413L192.236 91.6552L186.304 77.1666L184.453 77.9243ZM191.31 93.0341H191.515V91.0341H191.31V93.0341ZM192.44 92.413L198.372 77.9243L196.521 77.1666L190.589 91.6552L192.44 92.413ZM197.447 78.5455H199.969V76.5455H197.447V78.5455ZM198.969 77.5455V95H200.969V77.5455H198.969ZM199.969 94H197.992V96H199.969V94ZM198.992 95V81.7386H196.992V95H198.992ZM197.992 80.7386H197.822V82.7386H197.992V80.7386ZM196.897 81.3582L191.442 94.6196L193.292 95.3804L198.747 82.119L196.897 81.3582ZM192.367 94H190.458V96H192.367V94ZM191.383 94.6196L185.928 81.3582L184.079 82.119L189.533 95.3804L191.383 94.6196ZM185.004 80.7386H184.833V82.7386H185.004V80.7386ZM183.833 81.7386V95H185.833V81.7386H183.833ZM184.833 94H182.856V96H184.833V94ZM183.856 95V77.5455H181.856V95H183.856ZM204.207 95H203.207V96H204.207V95ZM204.207 77.5455V76.5455H203.207V77.5455H204.207ZM213.463 78.2869L212.969 79.1562L212.976 79.16L213.463 78.2869ZM215.406 80.2727L214.513 80.7224L214.513 80.7224L215.406 80.2727ZM215.406 85.8722L214.512 85.4249L214.509 85.4298L215.406 85.8722ZM213.48 87.8835L213.974 88.7528L213.979 88.7504L213.48 87.8835ZM205.912 88.625H204.912V89.625H205.912V88.625ZM205.912 86.75V85.75H204.912V86.75H205.912ZM212.33 86.2642L211.834 85.3954L211.834 85.3954L212.33 86.2642ZM213.565 84.9517L212.66 84.5268L212.658 84.5309L213.565 84.9517ZM213.565 81.1932L212.658 81.614L212.662 81.6217L213.565 81.1932ZM212.321 79.8977L211.836 80.7723L211.843 80.776L212.321 79.8977ZM206.321 79.4205V78.4205H205.321V79.4205H206.321ZM206.321 95V96H207.321V95H206.321ZM205.207 95V77.5455H203.207V95H205.207ZM204.207 78.5455H210.105V76.5455H204.207V78.5455ZM210.105 78.5455C211.362 78.5455 212.296 78.7735 212.969 79.1562L213.957 77.4176C212.892 76.8118 211.587 76.5455 210.105 76.5455V78.5455ZM212.976 79.16C213.689 79.5586 214.189 80.0787 214.513 80.7224L216.299 79.8231C215.783 78.7963 214.987 77.9926 213.951 77.4138L212.976 79.16ZM214.513 80.7224C214.856 81.4046 215.037 82.1801 215.037 83.0682H217.037C217.037 81.8994 216.797 80.8113 216.299 79.8231L214.513 80.7224ZM215.037 83.0682C215.037 83.9562 214.857 84.7356 214.512 85.4249L216.301 86.3194C216.797 85.3269 217.037 84.237 217.037 83.0682H215.037ZM214.509 85.4298C214.189 86.0803 213.692 86.6083 212.982 87.0167L213.979 88.7504C215.007 88.1587 215.794 87.3458 216.303 86.3145L214.509 85.4298ZM212.986 87.0142C212.312 87.3976 211.383 87.625 210.139 87.625V89.625C211.611 89.625 212.91 89.3581 213.974 88.7528L212.986 87.0142ZM210.139 87.625H205.912V89.625H210.139V87.625ZM206.912 88.625V86.75H204.912V88.625H206.912ZM205.912 87.75H210.071V85.75H205.912V87.75ZM210.071 87.75C211.111 87.75 212.054 87.5722 212.825 87.133L211.834 85.3954C211.469 85.604 210.906 85.75 210.071 85.75V87.75ZM212.825 87.133C213.559 86.7145 214.123 86.1268 214.472 85.3725L212.658 84.5309C212.497 84.8789 212.237 85.1662 211.834 85.3954L212.825 87.133ZM214.471 85.3766C214.802 84.6698 214.957 83.8939 214.957 83.0682H212.957C212.957 83.6402 212.851 84.12 212.66 84.5268L214.471 85.3766ZM214.957 83.0682C214.957 82.2427 214.802 81.468 214.469 80.7647L212.662 81.6217C212.851 82.0207 212.957 82.4959 212.957 83.0682H214.957ZM214.472 80.7723C214.12 80.0117 213.546 79.4263 212.799 79.0195L211.843 80.776C212.243 80.9941 212.5 81.2724 212.658 81.614L214.472 80.7723ZM212.806 79.0232C212.032 78.5941 211.085 78.4205 210.037 78.4205V80.4205C210.887 80.4205 211.462 80.565 211.836 80.7723L212.806 79.0232ZM210.037 78.4205H206.321V80.4205H210.037V78.4205ZM205.321 79.4205V95H207.321V79.4205H205.321ZM206.321 94H204.207V96H206.321V94ZM219.442 95H218.442V96H219.442V95ZM219.442 77.5455V76.5455H218.442V77.5455H219.442ZM221.555 77.5455H222.555V76.5455H221.555V77.5455ZM221.555 93.125H220.555V94.125H221.555V93.125ZM229.669 93.125H230.669V92.125H229.669V93.125ZM229.669 95V96H230.669V95H229.669ZM220.442 95V77.5455H218.442V95H220.442ZM219.442 78.5455H221.555V76.5455H219.442V78.5455ZM220.555 77.5455V93.125H222.555V77.5455H220.555ZM221.555 94.125H229.669V92.125H221.555V94.125ZM228.669 93.125V95H230.669V93.125H228.669ZM229.669 94H219.442V96H229.669V94ZM235.055 77.5455H236.055V76.5455H235.055V77.5455ZM235.055 95V96H236.055V95H235.055ZM232.942 95H231.942V96H232.942V95ZM232.942 77.5455V76.5455H231.942V77.5455H232.942ZM234.055 77.5455V95H236.055V77.5455H234.055ZM235.055 94H232.942V96H235.055V94ZM233.942 95V77.5455H231.942V95H233.942ZM232.942 78.5455H235.055V76.5455H232.942V78.5455ZM240.009 95V96H240.715L240.952 95.3345L240.009 95ZM237.793 95L236.855 94.6553L236.361 96H237.793V95ZM244.202 77.5455V76.5455H243.504L243.264 77.2008L244.202 77.5455ZM246.384 77.5455L247.323 77.2008L247.082 76.5455H246.384V77.5455ZM252.793 95V96H254.226L253.732 94.6553L252.793 95ZM250.577 95L249.635 95.3345L249.871 96H250.577V95ZM245.362 80.3068L246.304 79.9723L246.068 79.3068H245.362V80.3068ZM245.225 80.3068V79.3068H244.519L244.283 79.9723L245.225 80.3068ZM240.827 88.1818V87.1818H239.827V88.1818H240.827ZM249.759 88.1818H250.759V87.1818H249.759V88.1818ZM249.759 90.0568V91.0568H250.759V90.0568H249.759ZM240.827 90.0568H239.827V91.0568H240.827V90.0568ZM240.009 94H237.793V96H240.009V94ZM238.732 95.3447L245.141 77.8901L243.264 77.2008L236.855 94.6553L238.732 95.3447ZM244.202 78.5455H246.384V76.5455H244.202V78.5455ZM245.446 77.8901L251.855 95.3447L253.732 94.6553L247.323 77.2008L245.446 77.8901ZM252.793 94H250.577V96H252.793V94ZM251.52 94.6655L246.304 79.9723L244.419 80.6414L249.635 95.3345L251.52 94.6655ZM245.362 79.3068H245.225V81.3068H245.362V79.3068ZM244.283 79.9723L239.067 94.6655L240.952 95.3345L246.168 80.6414L244.283 79.9723ZM240.827 89.1818H249.759V87.1818H240.827V89.1818ZM248.759 88.1818V90.0568H250.759V88.1818H248.759ZM249.759 89.0568H240.827V91.0568H249.759V89.0568ZM241.827 90.0568V88.1818H239.827V90.0568H241.827ZM269.353 77.5455H270.353V76.5455H269.353V77.5455ZM269.353 95V96H270.353V95H269.353ZM267.308 95L266.486 95.5702L266.784 96H267.308V95ZM257.796 81.2955L258.618 80.7253L258.319 80.2955H257.796V81.2955ZM257.626 81.2955V80.2955H256.626V81.2955H257.626ZM257.626 95V96H258.626V95H257.626ZM255.512 95H254.512V96H255.512V95ZM255.512 77.5455V76.5455H254.512V77.5455H255.512ZM257.558 77.5455L258.379 76.9749L258.08 76.5455H257.558V77.5455ZM267.103 91.2841L266.282 91.8547L266.58 92.2841H267.103V91.2841ZM267.273 91.2841V92.2841H268.273V91.2841H267.273ZM267.273 77.5455V76.5455H266.273V77.5455H267.273ZM268.353 77.5455V95H270.353V77.5455H268.353ZM269.353 94H267.308V96H269.353V94ZM268.129 94.4298L258.618 80.7253L256.975 81.8656L266.486 95.5702L268.129 94.4298ZM257.796 80.2955H257.626V82.2955H257.796V80.2955ZM256.626 81.2955V95H258.626V81.2955H256.626ZM257.626 94H255.512V96H257.626V94ZM256.512 95V77.5455H254.512V95H256.512ZM255.512 78.5455H257.558V76.5455H255.512V78.5455ZM256.736 78.116L266.282 91.8547L267.924 90.7135L258.379 76.9749L256.736 78.116ZM267.103 92.2841H267.273V90.2841H267.103V92.2841ZM268.273 91.2841V77.5455H266.273V91.2841H268.273ZM267.273 78.5455H269.353V76.5455H267.273V78.5455ZM287.628 83V84H288.821L288.612 82.8255L287.628 83ZM285.514 83L284.535 83.2014L284.699 84H285.514V83ZM284.858 81.3977L284.026 81.9524L284.031 81.9595L284.858 81.3977ZM283.733 80.2386L283.145 81.0474L283.151 81.0517L283.157 81.0559L283.733 80.2386ZM282.276 79.5227L281.99 80.4811L281.99 80.4811L282.276 79.5227ZM277.733 80.0852L277.204 79.2363L277.202 79.2379L277.733 80.0852ZM275.696 82.446L274.797 82.0087L274.795 82.0127L275.696 82.446ZM275.696 90.0994L274.795 90.5328L274.797 90.5368L275.696 90.0994ZM277.733 92.4602L277.202 93.3076L277.204 93.3092L277.733 92.4602ZM282.276 93.0227L281.99 92.0643L281.99 92.0643L282.276 93.0227ZM283.733 92.3153L284.314 93.1291L284.316 93.1277L283.733 92.3153ZM284.858 91.1477L284.027 90.5907L284.026 90.593L284.858 91.1477ZM285.514 89.5455V88.5455H284.7L284.535 89.3422L285.514 89.5455ZM287.628 89.5455L288.612 89.721L288.822 88.5455H287.628V89.5455ZM286.759 91.9403L285.9 91.4279L285.9 91.4279L286.759 91.9403ZM285.19 93.7386L285.806 94.5265L285.811 94.523L285.19 93.7386ZM283.085 94.8551L282.773 93.9051L282.771 93.9057L283.085 94.8551ZM276.634 94.1477L276.102 94.9948L276.102 94.9948L276.634 94.1477ZM273.898 91.0455L274.794 90.6013L274.794 90.6013L273.898 91.0455ZM283.085 77.6903L282.771 78.6397L282.773 78.6404L283.085 77.6903ZM285.19 78.8153L284.57 79.5997L284.574 79.6031L285.19 78.8153ZM286.759 80.6051L285.9 81.1176L285.902 81.1206L286.759 80.6051ZM287.628 82H285.514V84H287.628V82ZM286.494 82.7986C286.345 82.0766 286.08 81.4171 285.685 80.836L284.031 81.9595C284.261 82.2988 284.433 82.7075 284.535 83.2014L286.494 82.7986ZM285.69 80.843C285.316 80.2824 284.855 79.8063 284.309 79.4214L283.157 81.0559C283.497 81.2959 283.786 81.5926 284.026 81.9524L285.69 80.843ZM284.321 79.4299C283.789 79.043 283.2 78.7548 282.561 78.5643L281.99 80.4811C282.419 80.6088 282.802 80.7979 283.145 81.0474L284.321 79.4299ZM282.561 78.5643C281.931 78.3766 281.277 78.2841 280.605 78.2841V80.2841C281.092 80.2841 281.552 80.3507 281.99 80.4811L282.561 78.5643ZM280.605 78.2841C279.37 78.2841 278.228 78.5988 277.204 79.2363L278.261 80.9342C278.953 80.5034 279.726 80.2841 280.605 80.2841V78.2841ZM277.202 79.2379C276.168 79.8856 275.372 80.8262 274.797 82.0087L276.595 82.8834C277.032 81.9863 277.593 81.353 278.264 80.9326L277.202 79.2379ZM274.795 82.0127C274.213 83.2228 273.946 84.6559 273.946 86.2727H275.946C275.946 84.8668 276.179 83.7488 276.597 82.8794L274.795 82.0127ZM273.946 86.2727C273.946 87.8895 274.213 89.3227 274.795 90.5328L276.597 89.6661C276.179 88.7967 275.946 87.6787 275.946 86.2727H273.946ZM274.797 90.5368C275.372 91.7193 276.168 92.6598 277.202 93.3076L278.264 91.6129C277.593 91.1924 277.032 90.5591 276.595 89.6621L274.797 90.5368ZM277.204 93.3092C278.228 93.9466 279.37 94.2614 280.605 94.2614V92.2614C279.726 92.2614 278.953 92.042 278.261 91.6113L277.204 93.3092ZM280.605 94.2614C281.277 94.2614 281.931 94.1689 282.561 93.9811L281.99 92.0643C281.552 92.1947 281.092 92.2614 280.605 92.2614V94.2614ZM282.561 93.9811C283.197 93.7916 283.784 93.5081 284.314 93.1291L283.152 91.5016C282.807 91.7475 282.422 91.9356 281.99 92.0643L282.561 93.9811ZM284.316 93.1277C284.858 92.7383 285.317 92.2614 285.69 91.7024L284.026 90.593C283.785 90.9545 283.494 91.256 283.15 91.503L284.316 93.1277ZM285.688 91.7048C286.08 91.1217 286.345 90.4651 286.493 89.7487L284.535 89.3422C284.434 89.8303 284.261 90.2419 284.027 90.5907L285.688 91.7048ZM285.514 90.5455H287.628V88.5455H285.514V90.5455ZM286.643 89.3699C286.503 90.1554 286.252 90.8374 285.9 91.4279L287.617 92.4528C288.106 91.6342 288.434 90.7196 288.612 89.721L286.643 89.3699ZM285.9 91.4279C285.54 92.0312 285.097 92.5376 284.57 92.9543L285.811 94.523C286.534 93.951 287.136 93.2586 287.617 92.4528L285.9 91.4279ZM284.574 92.9508C284.044 93.3659 283.445 93.6843 282.773 93.9051L283.397 95.8052C284.282 95.5146 285.087 95.0887 285.806 94.5264L284.574 92.9508ZM282.771 93.9057C282.108 94.1252 281.388 94.2386 280.605 94.2386V96.2386C281.584 96.2386 282.517 96.0963 283.399 95.8045L282.771 93.9057ZM280.605 94.2386C279.287 94.2386 278.151 93.9193 277.165 93.3007L276.102 94.9948C277.434 95.8307 278.946 96.2386 280.605 96.2386V94.2386ZM277.165 93.3007C276.177 92.6806 275.384 91.7929 274.794 90.6013L273.002 91.4896C273.741 92.9799 274.772 94.1603 276.102 94.9948L277.165 93.3007ZM274.794 90.6013C274.211 89.4265 273.901 87.9943 273.901 86.2727H271.901C271.901 88.2329 272.255 89.9825 273.002 91.4896L274.794 90.6013ZM273.901 86.2727C273.901 84.5511 274.211 83.1189 274.794 81.9442L273.002 81.0558C272.255 82.5629 271.901 84.3125 271.901 86.2727H273.901ZM274.794 81.9442C275.384 80.7526 276.177 79.8649 277.165 79.2448L276.102 77.5507C274.772 78.3851 273.741 79.5656 273.002 81.0558L274.794 81.9442ZM277.165 79.2448C278.151 78.6262 279.287 78.3068 280.605 78.3068V76.3068C278.946 76.3068 277.434 76.7147 276.102 77.5507L277.165 79.2448ZM280.605 78.3068C281.388 78.3068 282.108 78.4202 282.771 78.6397L283.399 76.741C282.517 76.4491 281.584 76.3068 280.605 76.3068V78.3068ZM282.773 78.6404C283.443 78.8604 284.04 79.1804 284.57 79.5997L285.811 78.031C285.091 77.4617 284.284 77.0316 283.397 76.7403L282.773 78.6404ZM284.574 79.6031C285.099 80.0132 285.54 80.5153 285.9 81.1176L287.617 80.0927C287.136 79.2858 286.532 78.5948 285.806 78.0275L284.574 79.6031ZM285.902 81.1206C286.252 81.703 286.503 82.3832 286.643 83.1745L288.612 82.8255C288.435 81.8214 288.106 80.905 287.615 80.0896L285.902 81.1206ZM291.043 95H290.043V96H291.043V95ZM291.043 77.5455V76.5455H290.043V77.5455H291.043ZM301.577 77.5455H302.577V76.5455H301.577V77.5455ZM301.577 79.4205V80.4205H302.577V79.4205H301.577ZM293.157 79.4205V78.4205H292.157V79.4205H293.157ZM293.157 85.3182H292.157V86.3182H293.157V85.3182ZM301.032 85.3182H302.032V84.3182H301.032V85.3182ZM301.032 87.1932V88.1932H302.032V87.1932H301.032ZM293.157 87.1932V86.1932H292.157V87.1932H293.157ZM293.157 93.125H292.157V94.125H293.157V93.125ZM301.714 93.125H302.714V92.125H301.714V93.125ZM301.714 95V96H302.714V95H301.714ZM292.043 95V77.5455H290.043V95H292.043ZM291.043 78.5455H301.577V76.5455H291.043V78.5455ZM300.577 77.5455V79.4205H302.577V77.5455H300.577ZM301.577 78.4205H293.157V80.4205H301.577V78.4205ZM292.157 79.4205V85.3182H294.157V79.4205H292.157ZM293.157 86.3182H301.032V84.3182H293.157V86.3182ZM300.032 85.3182V87.1932H302.032V85.3182H300.032ZM301.032 86.1932H293.157V88.1932H301.032V86.1932ZM292.157 87.1932V93.125H294.157V87.1932H292.157ZM293.157 94.125H301.714V92.125H293.157V94.125ZM300.714 93.125V95H302.714V93.125H300.714ZM301.714 94H291.043V96H301.714V94Z" fill="black"/>
</g>
<g filter="url(#filter1_di_2_2)">
<path d="M170.344 45.5455H171.409V57.1023C171.409 58.2898 171.134 59.3494 170.582 60.2812C170.031 61.2074 169.27 61.9403 168.298 62.4801C167.332 63.0142 166.222 63.2812 164.966 63.2812C163.716 63.2812 162.605 63.0142 161.634 62.4801C160.662 61.9403 159.898 61.2045 159.341 60.2727C158.79 59.3409 158.517 58.2841 158.523 57.1023V45.5455H159.588V57.0426C159.588 58.0483 159.815 58.9432 160.27 59.7273C160.73 60.5114 161.364 61.1307 162.17 61.5852C162.977 62.0341 163.909 62.2585 164.966 62.2585C166.023 62.2585 166.955 62.0341 167.761 61.5852C168.568 61.1307 169.199 60.5114 169.653 59.7273C170.114 58.9432 170.344 58.0483 170.344 57.0426V45.5455ZM189.79 45.5455V63H188.751L177.62 47.4801H177.518V63H176.452V45.5455H177.501L188.631 61.0824H188.734V45.5455H189.79ZM195.893 45.5455V63H194.827V45.5455H195.893ZM200.271 45.5455L205.999 61.6278H206.118L211.845 45.5455H212.97L206.672 63H205.445L199.146 45.5455H200.271ZM216.226 63V45.5455H225.942V46.5341H217.291V53.7699H225.422V54.7585H217.291V62.0114H226.146V63H216.226ZM230.359 63V45.5455H235.737C236.839 45.5455 237.788 45.7614 238.583 46.1932C239.379 46.625 239.989 47.2244 240.415 47.9915C240.842 48.7528 241.055 49.6392 241.055 50.6506C241.055 51.6506 240.842 52.5312 240.415 53.2926C239.989 54.0483 239.379 54.6392 238.583 55.0653C237.793 55.4915 236.847 55.7045 235.745 55.7045H230.93V54.7074H235.719C236.617 54.7074 237.384 54.5398 238.021 54.2045C238.657 53.8693 239.146 53.4006 239.487 52.7983C239.827 52.1903 239.998 51.4744 239.998 50.6506C239.998 49.821 239.827 49.0994 239.487 48.4858C239.146 47.8665 238.654 47.3864 238.012 47.0455C237.376 46.7045 236.609 46.5341 235.711 46.5341H231.424V63H230.359ZM237.526 55.0909L241.822 63H240.594L236.325 55.0909H237.526ZM254.721 49.9091C254.63 48.8239 254.187 47.946 253.391 47.2756C252.602 46.6051 251.579 46.2699 250.323 46.2699C249.477 46.2699 248.724 46.4261 248.065 46.7386C247.406 47.0511 246.888 47.4773 246.513 48.017C246.138 48.5568 245.951 49.1761 245.951 49.875C245.951 50.3239 246.036 50.7301 246.207 51.0938C246.383 51.4517 246.63 51.7727 246.948 52.0568C247.266 52.3352 247.644 52.5795 248.082 52.7898C248.519 53 249.002 53.1847 249.531 53.3438L251.44 53.9062C252.093 54.1051 252.695 54.3352 253.246 54.5966C253.803 54.858 254.286 55.1705 254.695 55.5341C255.11 55.892 255.431 56.3125 255.658 56.7955C255.891 57.2784 256.008 57.8352 256.008 58.4659C256.008 59.3864 255.769 60.2102 255.292 60.9375C254.82 61.6648 254.147 62.2386 253.272 62.6591C252.403 63.0739 251.377 63.2812 250.195 63.2812C249.07 63.2812 248.09 63.0909 247.255 62.7102C246.425 62.3295 245.769 61.8011 245.286 61.125C244.803 60.4432 244.531 59.6591 244.468 58.7727H245.559C245.616 59.4943 245.846 60.1193 246.249 60.6477C246.658 61.1705 247.201 61.5739 247.877 61.858C248.553 62.142 249.326 62.2841 250.195 62.2841C251.133 62.2841 251.96 62.125 252.675 61.8068C253.391 61.483 253.951 61.0341 254.354 60.4602C254.758 59.8864 254.96 59.2187 254.96 58.4574C254.96 57.8437 254.815 57.3182 254.525 56.8807C254.235 56.4432 253.806 56.0653 253.238 55.7472C252.675 55.429 251.977 55.1449 251.141 54.8949L249.104 54.2812C247.741 53.8665 246.698 53.3011 245.977 52.5852C245.261 51.8693 244.903 50.9773 244.903 49.9091C244.903 49.0114 245.141 48.2159 245.619 47.5227C246.096 46.8239 246.744 46.2756 247.562 45.8778C248.386 45.4801 249.315 45.2812 250.349 45.2812C251.388 45.2812 252.306 45.483 253.102 45.8864C253.897 46.2841 254.528 46.8324 254.994 47.5312C255.46 48.2244 255.718 49.017 255.769 49.9091H254.721ZM259.545 63H258.42L264.718 45.5455H265.945L272.244 63H271.119L265.374 46.9176H265.289L259.545 63ZM261.138 56.429H269.525V57.4176H261.138V56.429ZM275.499 63V45.5455H276.565V62.0114H285.087V63H275.499Z" fill="black"/>
</g>
<defs>
<filter id="filter0_d_2_2" x="142.432" y="77.3068" width="163.282" height="25.9318" filterUnits="userSpaceOnUse" color-interpolation-filters="sRGB">
<feFlood flood-opacity="0" result="BackgroundImageFix"/>
<feColorMatrix in="SourceAlpha" type="matrix" values="0 0 0 0 0 0 0 0 0 0 0 0 0 0 0 0 0 0 127 0" result="hardAlpha"/>
<feOffset dy="4"/>
<feGaussianBlur stdDeviation="2"/>
<feComposite in2="hardAlpha" operator="out"/>
<feColorMatrix type="matrix" values="0 0 0 0 0 0 0 0 0 0 0 0 0 0 0 0 0 0 0.25 0"/>
<feBlend mode="normal" in2="BackgroundImageFix" result="effect1_dropShadow_2_2"/>
<feBlend mode="normal" in="SourceGraphic" in2="effect1_dropShadow_2_2" result="shape"/>
</filter>
<filter id="filter1_di_2_2" x="154.514" y="45.2812" width="134.573" height="26" filterUnits="userSpaceOnUse" color-interpolation-filters="sRGB">
<feFlood flood-opacity="0" result="BackgroundImageFix"/>
<feColorMatrix in="SourceAlpha" type="matrix" values="0 0 0 0 0 0 0 0 0 0 0 0 0 0 0 0 0 0 127 0" result="hardAlpha"/>
<feOffset dy="4"/>
<feGaussianBlur stdDeviation="2"/>
<feComposite in2="hardAlpha" operator="out"/>
<feColorMatrix type="matrix" values="0 0 0 0 0 0 0 0 0 0 0 0 0 0 0 0 0 0 0.25 0"/>
<feBlend mode="normal" in2="BackgroundImageFix" result="effect1_dropShadow_2_2"/>
<feBlend mode="normal" in="SourceGraphic" in2="effect1_dropShadow_2_2" result="shape"/>
<feColorMatrix in="SourceAlpha" type="matrix" values="0 0 0 0 0 0 0 0 0 0 0 0 0 0 0 0 0 0 127 0" result="hardAlpha"/>
<feOffset dy="4"/>
<feGaussianBlur stdDeviation="2"/>
<feComposite in2="hardAlpha" operator="arithmetic" k2="-1" k3="1"/>
<feColorMatrix type="matrix" values="0 0 0 0 0 0 0 0 0 0 0 0 0 0 0 0 0 0 0.25 0"/>
<feBlend mode="normal" in2="shape" result="effect2_innerShadow_2_2"/>
</filter>
<clipPath id="clip0_2_2">
<rect width="153" height="146" fill="white" transform="translate(9 2)"/>
</clipPath>
</defs>
</svg>
